<svg xmlns="http://www.w3.org/2000/svg" viewBox="0 0 80 52.071">
  <defs>
    <style>
      .cls-1 {
        fill: #333;
      }
    </style>
  </defs>
  <path id="Path_12741" data-name="Path 12741" class="cls-1" d="M80,1.241A1.245,1.245,0,0,0,78.759,0H1.241A1.245,1.245,0,0,0,0,1.241V17.75a1.245,1.245,0,0,0,1.241,1.241H51.7V33.08H27.06a1.245,1.245,0,0,0-1.241,1.241V50.83a1.245,1.245,0,0,0,1.241,1.241H78.7a1.245,1.245,0,0,0,1.241-1.241V34.259h0V17.75h0V1.241ZM19.116,16.509H2.483V9.5h0V9.372h0V2.42h23.4V16.509ZM70.877,33.08H54.119V26.067h0v-.124h0V18.991H77.58V33.08h-6.7Zm6.7-16.571H54.119V9.5h0V9.372h0V2.42H77.58ZM45,16.509H28.3V9.5h0V9.372h0V2.42H51.7V16.509Zm0,33.08H28.3V42.576h0v-.124h0V35.5H51.7V49.589Zm32.583,0H54.119V42.576h0v-.124h0V35.5H77.58Z" transform="translate(0)"/>
</svg>
