<svg xmlns="http://www.w3.org/2000/svg" viewBox="0 0 80.054 50.779">
  <defs>
    <style>
      .cls-1 {
        fill: #333;
      }
    </style>
  </defs>
  <path id="Union_4" data-name="Union 4" class="cls-1" d="M6001,9106.778a1.13,1.13,0,0,1-1.152-1.033l-.791-4.976a2.731,2.731,0,0,1-.06-.3v-21.852a1.206,1.206,0,0,1,.06-.375c-.019-5.59.022-21.024.022-21.024A1.22,1.22,0,0,1,6000.3,9056h77.544a1.22,1.22,0,0,1,1.214,1.216v.121L6079,9078.6s0,.01,0,.015v21.973l-.789,5.1a1.233,1.233,0,0,1-1.214,1.031h-6.07a1.13,1.13,0,0,1-1.154-1.031l-.667-4.065h-60.152l-.667,4.125a1.234,1.234,0,0,1-1.214,1.033Zm70.9-2.427h4.066l.425-2.731h-4.916Zm-69.8,0h4.068l.423-2.731h-4.916Zm38.12-5.1h36.417v-18.964l-36.417-.027Zm-38.787,0h36.419v-18.993l-36.419-.027Zm75.259-21.852v-18.972h-36.433V9077.4Zm-38.8,0v-18.972h-36.433V9077.4Zm15.379,7.042a1.215,1.215,0,0,1,0-2.43h10.319a1.215,1.215,0,0,1,0,2.43Zm-38.785,0a1.215,1.215,0,0,1,0-2.43H6024.8a1.215,1.215,0,0,1,0,2.43Zm38.831-21.4a1.213,1.213,0,1,1,0-2.427h10.324a1.213,1.213,0,1,1,0,2.427Zm-38.8,0a1.213,1.213,0,1,1,0-2.427h10.323a1.213,1.213,0,1,1,0,2.427Z" transform="translate(-5999.001 -9055.999)"/>
</svg>
