<svg xmlns="http://www.w3.org/2000/svg" viewBox="0 0 64.398 60">
  <defs>
    <style>
      .cls-1 {
        fill: #333;
      }
    </style>
  </defs>
  <path id="Path_12737" data-name="Path 12737" class="cls-1" d="M50.524,276.92a1.019,1.019,0,0,1,1.832-.89l4.136,8.115a1.019,1.019,0,0,1-1.832.89Zm-1.152,7.435a1.019,1.019,0,1,1,1.832-.89l6.44,12.67a1.019,1.019,0,0,1-1.832.89Zm.681,11.309a1.019,1.019,0,0,1,1.832-.89l4.136,8.063a1.019,1.019,0,0,1-1.832.89ZM7.7,276.92a1.019,1.019,0,0,1,1.832-.89l4.136,8.115a1.019,1.019,0,0,1-1.832.89Zm-1.152,7.435a1.019,1.019,0,1,1,1.832-.89l6.44,12.67a1.019,1.019,0,0,1-1.832.89Zm.681,11.361a1.019,1.019,0,0,1,1.832-.89l4.136,8.115a1.019,1.019,0,0,1-1.832.89ZM62.3,261.894H2.042v1.832H62.3Zm-2.042,53.822H2.042v1.937H62.3v-1.937Zm-12.723-2.042H59.215V265.769H47.539Zm-28.691,0H45.5V265.769H18.848Zm-13.717,0H16.806V265.769H5.131Zm-4.084,0H3.089V265.769H1.047A1.05,1.05,0,0,1,0,264.721v-3.874A1.05,1.05,0,0,1,1.047,259.8h62.3a1.05,1.05,0,0,1,1.047,1.047v3.874a1.05,1.05,0,0,1-1.047,1.047H61.309v47.906h2.042a1.05,1.05,0,0,1,1.047,1.047v4.031a1.05,1.05,0,0,1-1.047,1.047H1.047A1.05,1.05,0,0,1,0,318.753v-4.031A1.05,1.05,0,0,1,1.047,313.674Z" transform="translate(0 -259.8)"/>
</svg>
