<svg xmlns="http://www.w3.org/2000/svg" viewBox="0 0 80 30.479">
  <defs>
    <style>
      .cls-1 {
        fill: #333;
      }
    </style>
  </defs>
  <path id="Path_12738" data-name="Path 12738" class="cls-1" d="M71.7,6.9H8.154V28.321h2.32l1.51-18.179v-.054a1.082,1.082,0,0,1,1.079-1.079H66.845a1.108,1.108,0,0,1,1.079,1.025l1.51,18.233h2.32C71.7,14.889,71.7,20.337,71.7,6.9Zm2.158,0V29.4a1.082,1.082,0,0,1-1.079,1.079H68.356A1.082,1.082,0,0,1,67.277,29.4v-.054l-1.51-18.179H13.98L12.469,29.4a1.037,1.037,0,0,1-1.079,1.025H6.967a1.082,1.082,0,0,1-1.079-1.079V6.851H.979A1.082,1.082,0,0,1-.1,5.772V1.079h0A1.082,1.082,0,0,1,.979,0H78.821A1.082,1.082,0,0,1,79.9,1.079v4.8h0a1.082,1.082,0,0,1-1.079,1.079H73.858ZM2.058,4.8H77.8V2.1H2.058Z" transform="translate(0.1)"/>
</svg>
