<svg id="Group_1177" data-name="Group 1177" xmlns="http://www.w3.org/2000/svg" viewBox="0 0 80 71.605">
  <defs>
    <style>
      .cls-1 {
        fill: #333;
      }
    </style>
  </defs>
  <path id="Path_12710" data-name="Path 12710" class="cls-1" d="M8.7,25.133a1.014,1.014,0,0,0,1.011,1.011h35.4a1.014,1.014,0,0,0,1.011-1.011v-6.22l.051.051a.972.972,0,0,0,.809.455H67.816a.979.979,0,0,0,.86-.506l.2-.3v6.523a1.014,1.014,0,0,0,1.011,1.011h17.7A1.014,1.014,0,0,0,88.6,25.133V1.011A1.014,1.014,0,0,0,87.589,0H69.89a1.014,1.014,0,0,0-1.011,1.011V15.575c-1.82-.4-3.692-.708-5.512-.961h0V1.011A1.014,1.014,0,0,0,62.355,0H52.342a1.014,1.014,0,0,0-1.011,1.011v13.6h0c-1.77.2-3.54.556-5.31.91V1.011A1.014,1.014,0,0,0,45.01,0H9.611A1.014,1.014,0,0,0,8.6,1.011V25.133ZM70.749,1.972H86.426V24.121H70.749Zm-17.4,0h7.889v12.44c-1.315-.1-2.63-.2-3.944-.2a34.348,34.348,0,0,0-3.944.2V1.972Zm-1.77,14.614a46.922,46.922,0,0,1,5.36-.354h.809a42.768,42.768,0,0,1,4.4.253H62.2c.3.051.556.051.86.1,1.466.2,2.882.4,4.248.708l-.1.152H47.386l-.1-.152C48.7,16.991,50.117,16.789,51.584,16.587ZM28.322,1.972H44V24.121H28.322Zm-17.649,0H26.35V24.121H10.673Z" transform="translate(-8.6)"/>
  <path id="Path_12711" data-name="Path 12711" class="cls-1" d="M146.061,40.4h-4.45a1.011,1.011,0,1,0,0,2.023h4.45a1.011,1.011,0,1,0,0-2.023Z" transform="translate(-73.849 -19.97)"/>
  <path id="Path_12712" data-name="Path 12712" class="cls-1" d="M27.261,40.4h-4.45a1.011,1.011,0,0,0,0,2.023h4.45a1.011,1.011,0,0,0,0-2.023Z" transform="translate(-15.125 -19.97)"/>
  <path id="Path_12713" data-name="Path 12713" class="cls-1" d="M62.261,40.4h-4.45a1.011,1.011,0,1,0,0,2.023h4.45a1.014,1.014,0,0,0,1.011-1.011A1.087,1.087,0,0,0,62.261,40.4Z" transform="translate(-32.426 -19.97)"/>
  <path id="Path_12714" data-name="Path 12714" class="cls-1" d="M86.514,88.726A1.164,1.164,0,1,0,85.3,87.563,1.222,1.222,0,0,0,86.514,88.726Z" transform="translate(-46.514 -42.708)"/>
  <path id="Path_12715" data-name="Path 12715" class="cls-1" d="M99.214,88.726A1.164,1.164,0,1,0,98,87.563,1.222,1.222,0,0,0,99.214,88.726Z" transform="translate(-52.791 -42.708)"/>
  <path id="Path_12716" data-name="Path 12716" class="cls-1" d="M141.611,89.823h4.45a1.011,1.011,0,1,0,0-2.023h-4.45a1.014,1.014,0,0,0-1.011,1.011A1.049,1.049,0,0,0,141.611,89.823Z" transform="translate(-73.849 -43.401)"/>
  <path id="Path_12717" data-name="Path 12717" class="cls-1" d="M87.486,64.47h-66.5L23.062,62.5A1,1,0,1,0,21.7,61.031l-1.163,1.163c-.051-2.427.152-4.7,1.416-4.956a1.59,1.59,0,0,1,.86.051.992.992,0,0,1,.455.455.973.973,0,0,0,1.719-.91,2.975,2.975,0,0,0-1.466-1.365,3.247,3.247,0,0,0-1.972-.152c-2.68.556-3.034,3.59-3.034,6.726L17.5,61.081a1,1,0,1,0-1.365,1.466l2.073,1.972h-8.5A1.014,1.014,0,0,0,8.7,65.532V97.9a1.014,1.014,0,0,0,1.011,1.011H87.537A1.014,1.014,0,0,0,88.548,97.9V65.481h0A1.134,1.134,0,0,0,87.486,64.47ZM26.4,96.834H10.723v-26.8H26.4ZM44.1,75.14V96.834H28.422v-26.8H44.1ZM68.826,96.834H46.07V93.6H68.826Zm0-5.209H46.07V76.151H68.826Zm0-17.446H46.07v-4.1H68.826ZM86.475,96.834H70.8v-26.8H86.475Zm0-28.774h-75.8V66.442H86.424V68.06Z" transform="translate(-8.649 -27.301)"/>
  <path id="Path_12718" data-name="Path 12718" class="cls-1" d="M22.811,89.823h4.45a1.011,1.011,0,0,0,0-2.023h-4.45A1.014,1.014,0,0,0,21.8,88.811,1.049,1.049,0,0,0,22.811,89.823Z" transform="translate(-15.125 -43.401)"/>
  <ellipse id="Ellipse_1118" data-name="Ellipse 1118" class="cls-1" cx="1.214" cy="1.163" rx="1.214" ry="1.163" transform="translate(48.9 43.641)"/>
  <path id="Path_12719" data-name="Path 12719" class="cls-1" d="M86.411,101.923H104.06a1.011,1.011,0,1,0,0-2.023H86.411a1.014,1.014,0,0,0-1.011,1.011A1.049,1.049,0,0,0,86.411,101.923Z" transform="translate(-46.563 -49.382)"/>
  <path id="Path_12720" data-name="Path 12720" class="cls-1" d="M57.811,89.823h4.45a1.011,1.011,0,1,0,0-2.023h-4.45a1.011,1.011,0,1,0,0,2.023Z" transform="translate(-32.426 -43.401)"/>
  <path id="Path_12721" data-name="Path 12721" class="cls-1" d="M120.914,88.726a1.164,1.164,0,1,0-1.214-1.163A1.188,1.188,0,0,0,120.914,88.726Z" transform="translate(-63.518 -42.708)"/>
  <path id="Path_12722" data-name="Path 12722" class="cls-1" d="M113.614,88.726a1.164,1.164,0,1,0-1.214-1.163A1.188,1.188,0,0,0,113.614,88.726Z" transform="translate(-59.909 -42.708)"/>
</svg>
