<svg xmlns="http://www.w3.org/2000/svg" viewBox="0 0 80 63.346">
  <defs>
    <style>
      .cls-1 {
        fill: #333;
      }
    </style>
  </defs>
  <path id="Path_12725" data-name="Path 12725" class="cls-1" d="M326.125,66.824H286.215l10.349,6.6h19.271Zm0-17.844h-39.97l10.349,6.6h19.271ZM296.5,64.5h19.271l10.349-6.6H286.215ZM309.53,46.66h20.58a1.193,1.193,0,0,1,1.19,1.19,1.042,1.042,0,0,1-.654,1.011l-10.528,6.721h9.993a1.193,1.193,0,0,1,1.19,1.19,1.042,1.042,0,0,1-.654,1.011L320.118,64.5h9.993a1.193,1.193,0,0,1,1.19,1.19,1.042,1.042,0,0,1-.654,1.011l-13.918,8.862a1.2,1.2,0,0,1-.654.178H296.148a1.276,1.276,0,0,1-.714-.238l-8.208-5.234a30.369,30.369,0,0,1-6.6.773,29.357,29.357,0,1,1,29.323-29.323A28.13,28.13,0,0,1,309.53,46.66Zm-26.706,11.9-1.309-.833a1.162,1.162,0,0,1-.357-1.606,1.143,1.143,0,0,1,.952-.535h10.052L281.516,48.8a1.162,1.162,0,0,1-.357-1.606,1.143,1.143,0,0,1,.952-.535h14.81a17.2,17.2,0,0,0,.714-5h0a17.059,17.059,0,0,0-17.011-17.011h0a17.059,17.059,0,0,0-17.011,17.011h0a17.059,17.059,0,0,0,17.011,17.011C281.4,58.675,282.11,58.616,282.824,58.556ZM282.17,64.5h9.993l-6.483-4.164a20.31,20.31,0,0,1-5.056.654,19.292,19.292,0,0,1-19.331-19.331h0a19.292,19.292,0,0,1,19.331-19.331h0a19.292,19.292,0,0,1,19.331,19.331h0a19.841,19.841,0,0,1-.654,5h7.851a27.373,27.373,0,0,0,.476-5,27,27,0,1,0-27,27,25.057,25.057,0,0,0,3.688-.238l-2.8-1.784a1.162,1.162,0,0,1-.357-1.606,1.244,1.244,0,0,1,1.011-.535Zm48.476-15.643a1.737,1.737,0,0,1-.535.119Zm0,8.922a1.737,1.737,0,0,1-.535.119Zm0,8.922a1.737,1.737,0,0,1-.535.119Z" transform="translate(-251.3 -12.4)"/>
</svg>
