<svg xmlns="http://www.w3.org/2000/svg" viewBox="0 0 80 49.467">
  <defs>
    <style>
      .cls-1 {
        fill: #333;
      }
    </style>
  </defs>
  <path id="Path_12709" data-name="Path 12709" class="cls-1" d="M71.7,247.913H8.154v40.3h2.32l1.51-37.06V251.1a1.082,1.082,0,0,1,1.079-1.079H66.845a1.108,1.108,0,0,1,1.079,1.025l1.51,37.114h2.32q-.081-20.067-.054-40.243Zm2.158,0v41.376a1.082,1.082,0,0,1-1.079,1.079H68.356a1.082,1.082,0,0,1-1.079-1.079v-.054l-1.51-37.06H13.98l-1.51,37.114a1.037,1.037,0,0,1-1.079,1.025H6.967a1.082,1.082,0,0,1-1.079-1.079V247.859H.979A1.082,1.082,0,0,1-.1,246.78v-4.8h0A1.082,1.082,0,0,1,.979,240.9H78.821a1.082,1.082,0,0,1,1.079,1.079v4.8h0a1.082,1.082,0,0,1-1.079,1.079H73.858Zm-71.8-2.1H77.8v-2.7H2.058Z" transform="translate(0.1 -240.9)"/>
</svg>
