<svg id="Group_1179" data-name="Group 1179" xmlns="http://www.w3.org/2000/svg" viewBox="0 0 80 38.211">
  <defs>
    <style>
      .cls-1 {
        fill: #333;
      }
    </style>
  </defs>
  <g id="Group_1178" data-name="Group 1178" transform="translate(38.393 6.368)">
    <path id="Path_12726" data-name="Path 12726" class="cls-1" d="M72.762,33a5.793,5.793,0,0,0-2.729-1.516V10.5H67.667V31.486a5.694,5.694,0,0,0-2.729,1.456A5.553,5.553,0,0,0,63.3,36.823h0A5.307,5.307,0,0,0,64.938,40.7a5.553,5.553,0,0,0,3.882,1.638h0A5.307,5.307,0,0,0,72.7,40.7a5.553,5.553,0,0,0,1.638-3.882h0A5.465,5.465,0,0,0,72.762,33Zm-.788,3.882a3.386,3.386,0,0,1-.91,2.244,3.158,3.158,0,0,1-2.244.91h0a3.386,3.386,0,0,1-2.244-.91,3.157,3.157,0,0,1-.91-2.244h0a3.386,3.386,0,0,1,.91-2.244,3.157,3.157,0,0,1,2.244-.91h0a3.107,3.107,0,0,1,3.154,3.154Z" transform="translate(-63.3 -10.5)"/>
    <path id="Path_12727" data-name="Path 12727" class="cls-1" d="M99.5,36.884A5.307,5.307,0,0,0,97.862,33a5.793,5.793,0,0,0-2.729-1.516V10.5H92.767V31.486a5.694,5.694,0,0,0-2.729,1.456A5.553,5.553,0,0,0,88.4,36.823h0A5.307,5.307,0,0,0,90.038,40.7a5.553,5.553,0,0,0,3.882,1.638h0A5.307,5.307,0,0,0,97.8,40.7a4.917,4.917,0,0,0,1.7-3.821Zm-2.365,0a3.386,3.386,0,0,1-.91,2.244,3.157,3.157,0,0,1-2.244.91h0a3.386,3.386,0,0,1-2.244-.91,3.157,3.157,0,0,1-.91-2.244h0a3.386,3.386,0,0,1,.91-2.244,3.157,3.157,0,0,1,2.244-.91h0a3.107,3.107,0,0,1,3.154,3.154Z" transform="translate(-73.176 -10.5)"/>
    <path id="Path_12728" data-name="Path 12728" class="cls-1" d="M124.7,36.884A5.307,5.307,0,0,0,123.062,33a5.793,5.793,0,0,0-2.729-1.516V10.5h-2.365V31.486a5.694,5.694,0,0,0-2.729,1.456,5.553,5.553,0,0,0-1.638,3.882h0a5.307,5.307,0,0,0,1.638,3.882,5.553,5.553,0,0,0,3.882,1.638h0A5.307,5.307,0,0,0,123,40.7a4.917,4.917,0,0,0,1.7-3.821Zm-2.365,0a3.386,3.386,0,0,1-.91,2.244,3.157,3.157,0,0,1-2.244.91h0a3.386,3.386,0,0,1-2.244-.91,3.157,3.157,0,0,1-.91-2.244h0a3.386,3.386,0,0,1,.91-2.244,3.157,3.157,0,0,1,2.244-.91h0a3.107,3.107,0,0,1,3.154,3.154Z" transform="translate(-83.092 -10.5)"/>
  </g>
  <path id="Path_12729" data-name="Path 12729" class="cls-1" d="M33.783,7.642H5.095V20.076H33.783V7.642Zm2.365,0V21.228a1.217,1.217,0,0,1-1.213,1.213H3.942a1.217,1.217,0,0,1-1.213-1.213V7.642H1.213A1.217,1.217,0,0,1,0,6.429V1.213A1.217,1.217,0,0,1,1.213,0H78.666a1.217,1.217,0,0,1,1.213,1.213V6.49A1.217,1.217,0,0,1,78.666,7.7H36.149ZM2.365,5.216H77.453V2.365H2.365Z"/>
</svg>
