<svg xmlns="http://www.w3.org/2000/svg" viewBox="0 0 65 64.196">
  <defs>
    <style>
      .cls-1 {
        fill: #333;
      }
    </style>
  </defs>
  <path id="Path_12731" data-name="Path 12731" class="cls-1" d="M65,62.926a1.155,1.155,0,0,0-1.17-1.17H63.1V2.532L63.026,1.07A1.155,1.155,0,0,0,61.856-.1H3.071A1.268,1.268,0,0,0,1.9,1.143V61.756H1.17a1.17,1.17,0,1,0,0,2.34H4.9a1.17,1.17,0,1,0,0-2.34H4.168V49.692H60.759V61.756h-.731a1.17,1.17,0,0,0,0,2.34h3.729A1.174,1.174,0,0,0,65,62.926ZM60.759,47.352H4.241V37.774H60.832v9.578Zm0-11.845H4.241V25.929H60.832v9.578Zm0-11.918H4.241V14.011H60.832V23.59Zm0-11.918H4.241V2.167H60.832v9.505Z" transform="translate(0 0.1)"/>
</svg>
