<svg xmlns="http://www.w3.org/2000/svg" viewBox="0 0 80 40.028">
  <defs>
    <style>
      .cls-1 {
        fill: #333;
      }
    </style>
  </defs>
  <path id="Path_12744" data-name="Path 12744" class="cls-1" d="M532.215,83.41a1.211,1.211,0,0,1,0-2.422h7.267a1.211,1.211,0,1,1,0,2.422Zm42.632,14.231a1.211,1.211,0,0,1,0-2.422h7.267a1.211,1.211,0,0,1,0,2.422Zm-42.632,0a1.211,1.211,0,0,1,0-2.422h7.267a1.211,1.211,0,1,1,0,2.422ZM520.83,73.963h73.94V71.722H519.559v2.241Zm1.211,14.231h70.246V76.325H522.042Zm70.246,2.362H522.042v11.869h70.246Zm-.182,14.17h-4.057l.363,2.18H591.8Zm-65.765,0h-4.057l.363,2.18h3.391ZM518.348,69.3h77.634a1.215,1.215,0,0,1,1.211,1.211v4.663a1.215,1.215,0,0,1-1.211,1.211h-1.332V89.4h0v14.231h0v.061h0v.061h0v.061h0l-.666,4.421a1.171,1.171,0,0,1-1.151,1.029h-5.45a1.239,1.239,0,0,1-1.211-1.09l-.545-3.452H528.763l-.545,3.573a1.171,1.171,0,0,1-1.151,1.029h-5.45a1.239,1.239,0,0,1-1.211-1.09l-.666-4.421v-.182h0V89.4h0V76.325h-1.332a1.215,1.215,0,0,1-1.211-1.211V70.451A1.113,1.113,0,0,1,518.348,69.3Zm56.5,14.11a1.211,1.211,0,0,1,0-2.422h7.267a1.211,1.211,0,0,1,0,2.422Z" transform="translate(-517.192 -69.3)"/>
</svg>
