<svg xmlns="http://www.w3.org/2000/svg" viewBox="0 0 74.813 65">
  <defs>
    <style>
      .cls-1 {
        fill: #333;
      }
    </style>
  </defs>
  <path id="Path_13098" data-name="Path 13098" class="cls-1" d="M74.748,35.683A6.326,6.326,0,0,0,73.2,32.337,3.811,3.811,0,0,0,70.784,31.1v-.257a3.479,3.479,0,0,0-1.647-2.883,6.1,6.1,0,0,0-1.75-.824,5.814,5.814,0,0,0,1.9-2.934,3.717,3.717,0,0,0-.566-3.294,3.571,3.571,0,0,0-3.14-1.184,6.5,6.5,0,0,0-3.346,1.39c-.051,0-.051.051-.1.051a7.026,7.026,0,0,0-.875.875.954.954,0,0,0-.1-.36A6.072,6.072,0,0,0,59.1,18.645h0A6.175,6.175,0,0,0,55.7,17.2a3.681,3.681,0,0,0-3.14,1.184h0a3.093,3.093,0,0,0-.669,1.441,6.058,6.058,0,0,0-1.853-1.493h0c-.051,0-.051-.051-.1-.051A25.01,25.01,0,0,0,53.695,13.7a1,1,0,0,0-.36-1.338,1.165,1.165,0,0,0-.927-.051h0c-1.235.618-2.677,1.235-4.272,1.9a88.139,88.139,0,0,0-8.442,3.964c3.037-5.1,4.942-10.6,5.2-13.641a.991.991,0,0,0-.927-1.081.917.917,0,0,0-.875.412c-.824,1.029-1.9,2.265-3.037,3.552a90.932,90.932,0,0,0-6.331,7.824c1.029-5.817.927-11.582.154-14.464A1.059,1.059,0,0,0,32.642.063a.972.972,0,0,0-.669.669h0c-.463,1.39-1.029,2.883-1.6,4.478a107,107,0,0,0-3.449,10.4,87.9,87.9,0,0,0-3.449-10.4c-.618-1.6-1.184-3.14-1.6-4.478h0a1.08,1.08,0,0,0-.669-.669,1,1,0,0,0-1.235.721c-.772,2.883-.927,8.648.154,14.464-2.007-2.831-4.272-5.456-6.331-7.824C12.67,6.137,11.64,4.9,10.765,3.872A.968.968,0,0,0,9.89,3.46a.991.991,0,0,0-.927,1.081c.257,3.037,2.162,8.545,5.2,13.641-2.831-1.544-5.817-2.831-8.442-3.964-1.544-.669-3.037-1.287-4.272-1.9h0a.865.865,0,0,0-.927.051A.951.951,0,0,0,.162,13.7C1.706,16.38,5.927,20.7,10.971,24A34.1,34.1,0,0,0,15.6,26.572H12.876a.956.956,0,0,0-.824,1.132L14.42,44.794H12.927a.75.75,0,0,0-.618.257.982.982,0,0,0-.1,1.39l4.53,5.353a1,1,0,0,0,.824.412H36.451a.926.926,0,0,0,.772-.36l.927-1.081h-.206a1.133,1.133,0,0,0,.412-.051,3.034,3.034,0,0,0,1.338-.515l.772,7H38.819a1.212,1.212,0,0,0-.669.257,1.041,1.041,0,0,0-.1,1.441l4.787,5.662a1.048,1.048,0,0,0,.824.463h19.92a.926.926,0,0,0,.772-.36L69.137,59a1.016,1.016,0,0,0,.309-.721,1.033,1.033,0,0,0-1.029-1.029H66.769l1.9-16.986a3.357,3.357,0,0,0,5.611-.978A6.314,6.314,0,0,0,74.748,35.683ZM62.136,24.719a4.744,4.744,0,0,1,1.338-2.007l.051-.051a4.116,4.116,0,0,1,2.213-.927,1.652,1.652,0,0,1,1.441.463,1.612,1.612,0,0,1,.206,1.493A3.974,3.974,0,0,1,66,25.7h0a3.992,3.992,0,0,1-2.213.978,1.6,1.6,0,0,1-1.235-.309h0a6.639,6.639,0,0,0-.412-1.6Zm-2.11.566a1.6,1.6,0,0,1,.463,1.39,4.554,4.554,0,0,1-.515,1.544,3.448,3.448,0,0,0-1.9-.515A2.855,2.855,0,0,0,55.7,28.837c.051-.051-.154.154-.1.154v-.257a4.265,4.265,0,0,1,.927-2.265,3.974,3.974,0,0,1,2.007-1.39A1.639,1.639,0,0,1,60.026,25.285Zm.206,7.515a3.881,3.881,0,0,1-.618,2.368,1.518,1.518,0,0,1-1.235.824h0a1.6,1.6,0,0,1-1.287-.772,4.4,4.4,0,0,1-.772-2.265v-.1a3.974,3.974,0,0,1,.618-2.316,1.518,1.518,0,0,1,1.235-.824,1.6,1.6,0,0,1,1.287.772,4.425,4.425,0,0,1,.772,2.316ZM54.261,19.674l.051-.051a1.763,1.763,0,0,1,1.39-.463,3.983,3.983,0,0,1,2.265.978h0a4.451,4.451,0,0,1,1.39,2.007,1.528,1.528,0,0,1,.051.824,4.925,4.925,0,0,0-1.39.154,6.03,6.03,0,0,0-1.441.669,4.212,4.212,0,0,1-2.471-2.728A1.329,1.329,0,0,1,54.261,19.674ZM52.82,24.256a3.574,3.574,0,0,0,.257-.669,5.13,5.13,0,0,0,1.029,1.081.18.18,0,0,0,.1.051,6.706,6.706,0,0,0,.772.515h0a6.144,6.144,0,0,0-.927,1.544,3.987,3.987,0,0,0-1.338-1.6c-.1-.1-.257-.154-.36-.257A3.756,3.756,0,0,0,52.82,24.256Zm1.647,7.155a1.133,1.133,0,0,0-.051.412,5.126,5.126,0,0,0-.927-1.493c.1-.1.154-.206.257-.309A3.013,3.013,0,0,0,54.467,31.41Zm-2.007,3.037a1.652,1.652,0,0,1-1.441.463,4.408,4.408,0,0,1-3.6-2.986c0-.051,0-.051-.051-.1a6.537,6.537,0,0,0,1.75.257,6.381,6.381,0,0,0,2.677-.566,3.33,3.33,0,0,1,.824,1.493A1.406,1.406,0,0,1,52.459,34.447ZM52.3,28.116a1.743,1.743,0,0,1-.772,1.287,4.156,4.156,0,0,1-2.368.669,3.522,3.522,0,0,1-2.883-1.235c-.051-.051-.051-.1-.1-.154l.051-.051c.051,0,.051-.051.1-.051a14.6,14.6,0,0,0,1.75-2.265,4.014,4.014,0,0,1,1.132-.154,4.279,4.279,0,0,1,2.368.669A1.842,1.842,0,0,1,52.3,28.116ZM45,27.035h0a3.983,3.983,0,0,1-2.265.978,1.652,1.652,0,0,1-1.441-.463h0a1.612,1.612,0,0,1-.206-1.493,4.744,4.744,0,0,1,1.338-2.007L42.473,24a4.116,4.116,0,0,1,2.213-.927,1.652,1.652,0,0,1,1.441.463,1.612,1.612,0,0,1,.206,1.493A3.951,3.951,0,0,1,45,27.035Zm1.132,1.7Zm-7.052,1.647a3.953,3.953,0,0,0-1.132,2.471,5.672,5.672,0,0,1-.927.1,4.279,4.279,0,0,1-2.368-.669A1.66,1.66,0,0,1,33.877,31a1.743,1.743,0,0,1,.772-1.287,4.156,4.156,0,0,1,2.368-.669,4.279,4.279,0,0,1,2.368.669l.154.154A6.432,6.432,0,0,1,39.076,30.381Zm-.051-3.809h-.618l.618-.309ZM37.48,36.867a4.265,4.265,0,0,1-.927,2.265,3.974,3.974,0,0,1-2.007,1.39,1.813,1.813,0,0,1-1.493-.154,1.6,1.6,0,0,1-.463-1.39,4.265,4.265,0,0,1,.927-2.265,3.974,3.974,0,0,1,2.007-1.39,1.813,1.813,0,0,1,1.493.154A1.763,1.763,0,0,1,37.48,36.867ZM50.967,21.785a1.725,1.725,0,0,1,.1,1.493A1.564,1.564,0,0,1,49.783,24a4.027,4.027,0,0,1-1.338-.1,3.189,3.189,0,0,0-.721-1.647,3.293,3.293,0,0,0-2.316-1.184,1.467,1.467,0,0,1,.1-.824A1.564,1.564,0,0,1,46.8,19.52a4.142,4.142,0,0,1,2.368.515c.051,0,.051.051.1.051A4.466,4.466,0,0,1,50.967,21.785Zm-1.9-5.765.772-.309q-.849.927-1.853,1.853a6.286,6.286,0,0,0-1.39-.051,3.572,3.572,0,0,0-2.831,1.75,3.068,3.068,0,0,0-.36,2.007,6,6,0,0,0-2.162,1.184c-.051,0-.051.051-.1.051a4.77,4.77,0,0,0-.721.721,27.441,27.441,0,0,1-7.206,3.088,27.253,27.253,0,0,0,3.861-4.169C40.723,19.571,45.253,17.667,49.062,16.02ZM41.7,8.71l.515-.566a45.345,45.345,0,0,1-4.324,9.42c-.669,1.081-1.338,2.11-2.11,3.14A20.628,20.628,0,0,0,31.3,24.925C32.59,19.16,37.635,13.343,41.7,8.71Zm-9.42-2.831.257-.721A44.265,44.265,0,0,1,31.715,15.5a29.809,29.809,0,0,1-3.552,9.832C27.237,19.468,30.068,11.9,32.281,5.879ZM21.42,5.21l.257.721C23.943,11.9,26.722,19.468,25.8,25.439a31.009,31.009,0,0,1-3.552-9.832A48.152,48.152,0,0,1,21.42,5.21ZM11.795,8.144l.515.566c4.066,4.633,9.111,10.449,10.449,16.214A19.518,19.518,0,0,0,18.28,20.7a33.42,33.42,0,0,1-2.11-3.14A43.2,43.2,0,0,1,11.795,8.144ZM12.052,22.3a42.019,42.019,0,0,1-7.876-6.64l.772.309c3.809,1.7,8.339,3.6,11.942,6.177a29.884,29.884,0,0,0,3.861,4.169A28.845,28.845,0,0,1,12.052,22.3Zm2.059,6.228H33A3.372,3.372,0,0,0,31.87,31a3.479,3.479,0,0,0,1.647,2.883l.051.051a5.648,5.648,0,0,0-1.647,1.493,5.875,5.875,0,0,0-1.39,3.4,3.559,3.559,0,0,0,1.235,3.088,3.259,3.259,0,0,0,2.368.721,5.828,5.828,0,0,0-.566,2.162H16.479ZM18.023,50.25,15.141,46.8H33.774a6.243,6.243,0,0,0,1.441,2.78,5.2,5.2,0,0,0,.824.669H18.023Zm21.1-2.419A1.751,1.751,0,0,1,38,48.809a1.653,1.653,0,0,1-1.39-.618,4.4,4.4,0,0,1-.721-4.633,1.751,1.751,0,0,1,1.132-.978,1.653,1.653,0,0,1,1.39.618,3.673,3.673,0,0,1,.978,2.162v.1A3.3,3.3,0,0,1,39.127,47.831ZM40,33.006A4.744,4.744,0,0,1,41.341,31l.051-.051a4.116,4.116,0,0,1,2.213-.927,1.769,1.769,0,0,1,1.184.257,2.378,2.378,0,0,0,.36.36,1.929,1.929,0,0,1,.1,1.338,3.974,3.974,0,0,1-1.39,2.007h0a3.983,3.983,0,0,1-2.265.978,1.652,1.652,0,0,1-1.441-.463A1.839,1.839,0,0,1,40,33.006Zm23.06,30.009H44.069l-3.14-3.706H66.2Zm1.6-5.765H42.473l-1.081-9.677a5.66,5.66,0,0,0,.1-2.471h0a5.816,5.816,0,0,0-.618-1.956h0l-.721-6.383a4.12,4.12,0,0,0,1.6.154,6.5,6.5,0,0,0,3.346-1.39c.051,0,.051-.051.1-.051.36-.309.618-.618.927-.927h.463a7.863,7.863,0,0,0,.927.927c.051,0,.051.051.1.051a6.093,6.093,0,0,0,3.346,1.39,3.681,3.681,0,0,0,3.14-1.184,2.9,2.9,0,0,0,.566-1.029,5.438,5.438,0,0,0,.927,1.8,3.57,3.57,0,0,0,2.883,1.544h.1a3.546,3.546,0,0,0,2.78-1.75,5.955,5.955,0,0,0,.721-1.75h1.9a6.523,6.523,0,0,0,1.75.206,5.089,5.089,0,0,0,1.544-.206ZM68,32.08a4.156,4.156,0,0,1-2.368.669,4.279,4.279,0,0,1-2.368-.669,1.66,1.66,0,0,1-.772-1.287,1.743,1.743,0,0,1,.772-1.287,4.156,4.156,0,0,1,2.368-.669A4.279,4.279,0,0,1,68,29.506a1.66,1.66,0,0,1,.772,1.287A1.377,1.377,0,0,1,68,32.08Zm4.427,6.28a1.751,1.751,0,0,1-1.132.978,1.653,1.653,0,0,1-1.39-.618,3.941,3.941,0,0,1-.927-1.853l.309-2.934a1.443,1.443,0,0,1,1.081-.824,1.653,1.653,0,0,1,1.39.618,4.046,4.046,0,0,1,1.029,2.213A4.465,4.465,0,0,1,72.431,38.359Z" transform="translate(-0.015 -0.023)"/>
</svg>
