<svg xmlns="http://www.w3.org/2000/svg" viewBox="0 0 80 41.439">
  <defs>
    <style>
      .cls-1 {
        fill: #333;
      }
    </style>
  </defs>
  <path id="Path_12745" data-name="Path 12745" class="cls-1" d="M527.378,329.194V300.475H524.04v28.719Zm61.64-28.662H585.68v28.719h3.338Zm-30.791,0h-3.338v28.719h3.338Zm-.4-2.3H594.2V292.3H557.824Zm-34.935,0h32.633V292.3H518.745v5.928Zm6.734,2.245v29.813a1.154,1.154,0,0,1-1.151,1.151h-5.583a1.154,1.154,0,0,1-1.151-1.151V300.475h-4.086a1.154,1.154,0,0,1-1.151-1.151v-8.173A1.154,1.154,0,0,1,517.651,290h77.7a1.154,1.154,0,0,1,1.151,1.151v8.173a1.154,1.154,0,0,1-1.151,1.151h-4.086v29.813a1.155,1.155,0,0,1-1.151,1.151h-5.583a1.155,1.155,0,0,1-1.151-1.151V300.475H560.529v29.813a1.155,1.155,0,0,1-1.151,1.151h-5.583a1.155,1.155,0,0,1-1.151-1.151V300.475Z" transform="translate(-516.5 -290)"/>
</svg>
