<svg xmlns="http://www.w3.org/2000/svg" viewBox="0 0 74.967 65">
  <defs>
    <style>
      .cls-1 {
        fill: #fff;
        fill-rule: evenodd;
      }

      .cls-2 {
        fill: #333;
      }
    </style>
  </defs>
  <g id="Group_1180" data-name="Group 1180" transform="translate(-1401.059 -2189.223)">
    <path id="Path_12747" data-name="Path 12747" class="cls-1" d="M280.4,303.2h28.088l-2.6,18.283H283Z" transform="translate(1133.601 1913.589)"/>
    <path id="Path_12749" data-name="Path 12749" class="cls-2" d="M293.944,296.093h-23.8l2.911,3.473h18.028Zm-3.166-26.2c.766-1.021,1.481-2.043,2.145-3.115a42.383,42.383,0,0,0,4.341-9.448l-.511.562c-4.035,4.647-9.141,10.469-10.469,16.24A22.287,22.287,0,0,1,290.778,269.894Zm-7.558,4.749a30.644,30.644,0,0,0,3.575-9.856,44.959,44.959,0,0,0,.817-10.367l-.255.715C285.109,261.11,282.3,268.669,283.219,274.644Zm-5.924-9.856a30.645,30.645,0,0,0,3.575,9.856c.97-5.975-1.89-13.533-4.137-19.509l-.255-.715A44.956,44.956,0,0,0,277.3,264.787Zm-6.128,1.992a33.6,33.6,0,0,0,2.145,3.115,22.287,22.287,0,0,1,4.494,4.239c-1.328-5.771-6.435-11.593-10.469-16.24l-.511-.562A44.818,44.818,0,0,0,271.167,266.779Zm4.6,8.733a27.73,27.73,0,0,1-3.881-4.188,64.92,64.92,0,0,0-12-6.128l-.766-.306a42.254,42.254,0,0,0,7.865,6.639A30.6,30.6,0,0,0,275.763,275.512Zm-4.29,18.589h21.092l2.349-16.291h-25.79Zm-3.473,0h1.481l-2.451-17.159a.959.959,0,0,1,.868-1.124h2.758a34.75,34.75,0,0,1-4.647-2.6c-5.056-3.32-9.295-7.609-10.827-10.316a1.063,1.063,0,0,1,.357-1.379,1.165,1.165,0,0,1,.919-.051h0c1.226.613,2.707,1.226,4.239,1.89,2.656,1.124,5.669,2.451,8.478,3.983-3.013-5.107-4.954-10.622-5.209-13.636a.983.983,0,0,1,.919-1.072,1.05,1.05,0,0,1,.919.409c.817,1.072,1.89,2.247,3.013,3.575a94.609,94.609,0,0,1,6.384,7.865c-1.072-5.822-.919-11.593-.153-14.5a1.032,1.032,0,0,1,1.226-.715.964.964,0,0,1,.664.664h0c.46,1.379,1.021,2.911,1.634,4.494a92.262,92.262,0,0,1,3.422,10.418,103.836,103.836,0,0,1,3.422-10.418c.613-1.634,1.175-3.115,1.634-4.494h0a1.071,1.071,0,0,1,.664-.664.99.99,0,0,1,1.226.715c.817,2.911.919,8.682-.153,14.5,1.992-2.809,4.29-5.464,6.384-7.865,1.124-1.328,2.2-2.5,3.013-3.575a1,1,0,0,1,.919-.409.983.983,0,0,1,.919,1.072c-.255,3.013-2.145,8.529-5.209,13.636,2.809-1.532,5.822-2.809,8.478-3.983,1.583-.664,3.013-1.277,4.239-1.89h0a.858.858,0,0,1,.919.051.99.99,0,0,1,.358,1.379c-1.532,2.707-5.771,7.048-10.827,10.316a37.428,37.428,0,0,1-4.647,2.6h2.6a1.024,1.024,0,0,1,1.021,1.021v.2l-2.451,17.108h1.481a1.024,1.024,0,0,1,1.021,1.021.927.927,0,0,1-.306.715l-4.545,5.362a.919.919,0,0,1-.766.357H272.444a.866.866,0,0,1-.817-.46l-4.545-5.362a1.036,1.036,0,0,1,.1-1.43A1.489,1.489,0,0,1,268,294.1Zm20.326-18.589a29.146,29.146,0,0,0,8.733-3.983,42.706,42.706,0,0,0,7.916-6.639l-.766.306a66.561,66.561,0,0,0-12,6.128A27.916,27.916,0,0,1,288.326,275.512Z" transform="translate(1146 1940)"/>
    <path id="Path_12752" data-name="Path 12752" class="cls-1" d="M318.393,303.212c1.43-1.787,3.626-2.4,4.852-1.379,1.277,1.021,1.124,3.268-.306,5.056s-3.626,2.4-4.852,1.379-1.124-3.268.306-5.056Zm13.687-5.618c-.511,1.277.1,3.064,1.634,4.341,1.736,1.43,4.034,1.634,5.056.357,1.021-1.226.46-3.371-1.226-4.8a2.511,2.511,0,0,0,1.277-2.145c0-1.634-1.839-2.911-4.137-2.911a5.342,5.342,0,0,0-1.839.306h0a2.594,2.594,0,0,0,.153-.868c1.839.766,3.728.409,4.443-.868.766-1.43-.2-3.473-2.2-4.545s-4.239-.817-5,.562a2.591,2.591,0,0,0,0,2.3,4.853,4.853,0,0,0-2.758,1.175c-1.736,1.43-2.349,3.626-1.328,4.9.919,1.124,2.809,1.072,4.443.051a2.189,2.189,0,0,0,.511,1.226c-1.072-.868-2.962-.664-4.494.511a4.3,4.3,0,0,0-3.881-1.941c-2.3,0-4.137,1.328-4.137,2.911,0,1.634,1.839,2.911,4.137,2.911a5.341,5.341,0,0,0,1.839-.306,2.052,2.052,0,0,0,.511,1.43c1.021,1.226,3.268,1.072,5.056-.358,1.685-1.379,2.3-3.473,1.43-4.749A1.623,1.623,0,0,0,332.08,297.595Zm16.24-8.426c1.736-1.43,4.034-1.634,5.056-.358,1.021,1.226.46,3.422-1.328,4.9-1.736,1.43-4.034,1.634-5.056.358l-.051-.051a4.993,4.993,0,0,1-1.175,2.809c-.051.051-.1.153-.153.2a4.917,4.917,0,0,1,1.021,2.962c.1,2.3-1.175,4.188-2.758,4.239-1.634.051-3.013-1.736-3.064-4.034a5.644,5.644,0,0,1,.255-1.89c-.051-.051-.1-.051-.153-.1-1.277-1.021-1.124-3.268.306-5.056a5.468,5.468,0,0,1,.97-.919,5.283,5.283,0,0,1-1.89-1.021c-1.736-1.43-2.349-3.626-1.328-4.9,1.021-1.226,3.268-1.072,5.056.357,1.685,1.379,2.3,3.473,1.43,4.749a2.751,2.751,0,0,1,.664.358,3.3,3.3,0,0,1,.409.46A4.829,4.829,0,0,1,348.32,289.168Zm2.758,5.924c2.3,0,4.137,1.328,4.137,2.911,0,1.634-1.839,2.911-4.137,2.911s-4.137-1.328-4.137-2.911C346.992,296.42,348.831,295.092,351.078,295.092Zm2.247,8.733c-.306-2.247.715-4.29,2.3-4.494,1.583-.255,3.166,1.379,3.473,3.677.306,2.247-.715,4.29-2.3,4.494S353.683,306.072,353.325,303.825Zm-32.991,9.346c-.306-2.247.715-4.29,2.3-4.494,1.583-.255,3.166,1.379,3.473,3.677.306,2.247-.715,4.29-2.3,4.494S320.64,315.418,320.334,313.171Z" transform="translate(1115.575 1922.258)"/>
    <path id="Path_12753" data-name="Path 12753" class="cls-2" d="M350.736,325.26H325.66l3.115,3.677H347.62Zm-30.489-23.8a3.943,3.943,0,0,0-1.992,1.379,3.861,3.861,0,0,0-.919,2.247,1.357,1.357,0,0,0,1.941,1.532,3.943,3.943,0,0,0,1.992-1.379,3.861,3.861,0,0,0,.919-2.247,1.486,1.486,0,0,0-.46-1.379A1.771,1.771,0,0,0,320.247,301.462Zm.46,8.171a4.362,4.362,0,0,0,.715,4.6,1.8,1.8,0,0,0,1.379.613,1.5,1.5,0,0,0,1.124-.97,4.244,4.244,0,0,0,.357-2.349v-.1a4.395,4.395,0,0,0-.97-2.145,1.484,1.484,0,0,0-2.6.358Zm3.115-13.023c-.153.1.613-.613.46-.511l-.153-.153a4.123,4.123,0,0,0-2.349-.664,4.246,4.246,0,0,0-2.349.664,1.647,1.647,0,0,0-.766,1.277,1.73,1.73,0,0,0,.766,1.277,4.123,4.123,0,0,0,2.349.664,5.629,5.629,0,0,0,.919-.1A3.9,3.9,0,0,1,323.822,296.61Zm-.613,9.448c-.1.153-.255.358-.357.511-.051.051-.1.153-.153.2a2.881,2.881,0,0,1,.613.2Zm18.283-9.244a3.943,3.943,0,0,0-.613,2.3v.1a3.821,3.821,0,0,0,.766,2.247,1.73,1.73,0,0,0,1.277.766h0a1.629,1.629,0,0,0,1.226-.817,4.231,4.231,0,0,0,.613-2.349h0a3.985,3.985,0,0,0-.766-2.3,1.73,1.73,0,0,0-1.277-.766A1.579,1.579,0,0,0,341.492,296.814Zm11.031-1.021a4.123,4.123,0,0,0-2.349-.664,4.246,4.246,0,0,0-2.349.664,1.647,1.647,0,0,0-.766,1.277,1.73,1.73,0,0,0,.766,1.277,4.123,4.123,0,0,0,2.349.664,4.246,4.246,0,0,0,2.349-.664,1.647,1.647,0,0,0,.766-1.277A1.416,1.416,0,0,0,352.523,295.793Zm-.766,5a7.884,7.884,0,0,1-1.532.2,9.5,9.5,0,0,1-1.736-.2H346.6a5.907,5.907,0,0,1-.715,1.736,3.518,3.518,0,0,1-2.758,1.736h-.1a3.542,3.542,0,0,1-2.86-1.532,5.4,5.4,0,0,1-.919-1.787,2.88,2.88,0,0,1-.562,1.021,3.543,3.543,0,0,1-3.115,1.175,6.448,6.448,0,0,1-3.32-1.379c-.051,0-.051-.051-.1-.051-.357-.306-.613-.613-.919-.919h-.46a7.8,7.8,0,0,1-.919.919c-.051,0-.051.051-.1.051a5.9,5.9,0,0,1-3.32,1.379,3.99,3.99,0,0,1-1.583-.153l.715,6.282h0a5.77,5.77,0,0,1,.613,1.941h0a6.519,6.519,0,0,1-.1,2.451l1.072,9.6H349.2Zm2.043-.664-.306,2.911a3.91,3.91,0,0,0,.919,1.839,1.8,1.8,0,0,0,1.379.613,1.5,1.5,0,0,0,1.124-.97,4.362,4.362,0,0,0-.715-4.6,1.8,1.8,0,0,0-1.379-.613A1.668,1.668,0,0,0,353.8,300.134Zm-24.36-10.776a4.084,4.084,0,0,0-2.2.919l-.051.051a3.55,3.55,0,0,0-1.328,1.992,1.626,1.626,0,0,0,.2,1.481h0a1.639,1.639,0,0,0,1.43.46,3.684,3.684,0,0,0,2.2-.97h0a4.416,4.416,0,0,0,1.379-1.992,1.407,1.407,0,0,0-1.634-1.941Zm.664-1.992a3.267,3.267,0,0,1,2.3,1.175,3.164,3.164,0,0,1,.715,1.634,4,4,0,0,0,1.328.1,1.481,1.481,0,0,0,1.277-.715,1.711,1.711,0,0,0-.1-1.481,4.1,4.1,0,0,0-1.685-1.685c-.051,0-.051-.051-.1-.051a4.109,4.109,0,0,0-2.349-.511,1.481,1.481,0,0,0-1.277.715A1.4,1.4,0,0,0,330.1,287.367Zm13.84,1.89a2.211,2.211,0,0,0-.051-.817,3.943,3.943,0,0,0-1.379-1.992h0a3.952,3.952,0,0,0-2.247-.97,1.587,1.587,0,0,0-1.379.46l-.051.051a1.681,1.681,0,0,0-.153,1.43,4.425,4.425,0,0,0,2.451,2.707,5.193,5.193,0,0,1,1.43-.664A4.628,4.628,0,0,1,343.943,289.256Zm3.115,3.319h0a1.835,1.835,0,0,0,1.226.306,3.684,3.684,0,0,0,2.2-.97h0a4.417,4.417,0,0,0,1.379-1.992,1.407,1.407,0,0,0-1.634-1.941,4.084,4.084,0,0,0-2.2.919l-.051.051a3.55,3.55,0,0,0-1.328,1.992v.051A6.586,6.586,0,0,1,347.059,292.576Zm-2.451,1.941-4.29.562a2.7,2.7,0,0,1,2.349-1.124,3.611,3.611,0,0,1,1.89.511,3.039,3.039,0,0,0,.511-1.532,1.357,1.357,0,0,0-1.941-1.532,3.943,3.943,0,0,0-1.992,1.379,3.861,3.861,0,0,0-.919,2.247v.255C340.164,295.282,340.317,295.078,340.317,295.078Zm-10.52,1.736-.358-.357a1.755,1.755,0,0,0-1.175-.255,4.084,4.084,0,0,0-2.2.919l-.051.051a3.551,3.551,0,0,0-1.328,1.992,1.407,1.407,0,0,0,1.634,1.941,3.952,3.952,0,0,0,2.247-.97h0a4.417,4.417,0,0,0,1.379-1.992A1.9,1.9,0,0,0,329.8,296.814Zm8.835-3.779a6.779,6.779,0,0,1,.919-1.532h0c-.255-.153-.511-.357-.766-.511-.051,0-.051-.051-.1-.051a6.717,6.717,0,0,1-1.021-1.072,2.564,2.564,0,0,1-.255.664,3.626,3.626,0,0,1-.511.715,2.163,2.163,0,0,1,.357.255A3.071,3.071,0,0,1,338.632,293.035Zm-.562,3.473a5.086,5.086,0,0,1,.919,1.481c0-.153.051-.255.051-.409a3.678,3.678,0,0,1-.766-1.379A1.068,1.068,0,0,1,338.07,296.508Zm-6.026,1.532c0,.051,0,.051.051.1a4.373,4.373,0,0,0,3.575,2.962,1.639,1.639,0,0,0,1.43-.46,1.6,1.6,0,0,0,.2-1.481,3.884,3.884,0,0,0-.817-1.481,6.331,6.331,0,0,1-2.656.562A6.61,6.61,0,0,1,332.044,298.04Zm-1.124-3.013a3.729,3.729,0,0,0,2.86,1.226,4.246,4.246,0,0,0,2.349-.664,1.647,1.647,0,0,0,.766-1.277,1.73,1.73,0,0,0-.766-1.277,4.123,4.123,0,0,0-2.349-.664,3.983,3.983,0,0,0-1.124.153,11.894,11.894,0,0,1-1.736,2.247c-.051,0-.051.051-.1.051l-.051.051Zm-7.405,28.241h1.634l-.766-6.945a3.01,3.01,0,0,1-1.328.511,3.574,3.574,0,0,1-3.064-1.175,6.276,6.276,0,0,1-1.532-3.32,5.918,5.918,0,0,1,.511-3.575,3.234,3.234,0,0,1-2.349-.715,3.531,3.531,0,0,1-1.226-3.064,5.83,5.83,0,0,1,1.379-3.371,8.758,8.758,0,0,1,1.634-1.481l-.051-.051a3.52,3.52,0,0,1-1.634-2.86,3.451,3.451,0,0,1,1.634-2.86,5.938,5.938,0,0,1,3.473-1.021,6.586,6.586,0,0,1,2.043.306,3.811,3.811,0,0,1,.1-1.839,6.253,6.253,0,0,1,1.992-3.013.178.178,0,0,1,.1-.051,6.33,6.33,0,0,1,2.145-1.175,2.989,2.989,0,0,1,.357-1.992,3.544,3.544,0,0,1,2.809-1.736,5.789,5.789,0,0,1,3.575.766h0a7.551,7.551,0,0,1,1.839,1.481,3.069,3.069,0,0,1,.664-1.43h0a3.543,3.543,0,0,1,3.115-1.175,6.283,6.283,0,0,1,3.371,1.43h0a6.372,6.372,0,0,1,2.043,3.013c.051.1.051.255.1.357a4.656,4.656,0,0,1,.868-.868.178.178,0,0,1,.1-.051,6.045,6.045,0,0,1,3.32-1.379,3.652,3.652,0,0,1,3.115,1.175,3.512,3.512,0,0,1,.562,3.268,5.768,5.768,0,0,1-1.89,2.911,5.471,5.471,0,0,1,1.736.817,3.52,3.52,0,0,1,1.634,2.86v.255a3.78,3.78,0,0,1,2.4,1.226,6.276,6.276,0,0,1,1.532,3.32,6.084,6.084,0,0,1-.511,3.626,3.612,3.612,0,0,1-2.6,2.043,3.55,3.55,0,0,1-2.962-1.072l-1.89,16.853h1.634a1.024,1.024,0,0,1,1.021,1.021.927.927,0,0,1-.306.715l-4.749,5.618a.919.919,0,0,1-.766.357H328.571a.866.866,0,0,1-.817-.46L323,324.9a1.036,1.036,0,0,1,.1-1.43c-.051-.1.153-.2.408-.2Zm7.252-28.344Z" transform="translate(1116.48 1923.243)"/>
  </g>
</svg>
