<svg xmlns="http://www.w3.org/2000/svg" viewBox="0 0 80 83.335">
  <defs>
    <style>
      .cls-1 {
        fill: #333;
      }
    </style>
  </defs>
  <path id="Path_12746" data-name="Path 12746" class="cls-1" d="M321.486,57.262a1.112,1.112,0,0,1,0-2.224h6.393a1.112,1.112,0,1,1,0,2.224Zm0-13.509a1.112,1.112,0,0,1,0-2.224h6.393a1.112,1.112,0,1,1,0,2.224ZM325.322,77.5H322.6V81h2.724ZM337,63.989H312.2V75.274H337Zm-33.245-37.8h-4.336v4.17h4.336Zm8.728-12.675a1.107,1.107,0,0,1,1.39,1.723l-6.894,5.615a1.107,1.107,0,0,1-1.39-1.723Zm-3.28-4.67a1.107,1.107,0,0,1,1.39,1.723L299.8,19.291a1.107,1.107,0,0,1-1.39-1.723Zm-6.338-2.168a1.107,1.107,0,0,1,1.39,1.723l-10.785,8.728a1.107,1.107,0,0,1-1.39-1.723Zm-6.449-.945A1.107,1.107,0,0,1,297.8,7.45l-6.894,5.615a1.107,1.107,0,1,1-1.39-1.723Zm1.89,18.29h18.791V2.168H286.073V23.961H298.3Zm11.73,13.009H274.287V48.311h35.747Zm-37.86,12.509V37.026H269.45V80.945h2.724Zm37.86,1H274.287V82.057a1.115,1.115,0,0,1-1.112,1.112h-4.892a1.115,1.115,0,0,1-1.112-1.112V37.026h-4.559a1.115,1.115,0,0,1-1.112-1.112v-4.5a1.115,1.115,0,0,1,1.112-1.112h34.524v-4.17H284.905a1.115,1.115,0,0,1-1.112-1.112V1.112A1.115,1.115,0,0,1,284.905,0h33.19a1.115,1.115,0,0,1,1.112,1.112V25.129a1.115,1.115,0,0,1-1.112,1.112H305.864v4.17h34.524a1.115,1.115,0,0,1,1.112,1.112v4.5a1.115,1.115,0,0,1-1.112,1.112h-1.279v12.4h0V63.044h0V76.553A1.115,1.115,0,0,1,338,77.665H327.379v4.559a1.115,1.115,0,0,1-1.112,1.112h-4.892a1.115,1.115,0,0,1-1.112-1.112V77.665h-9.284a1.115,1.115,0,0,1-1.112-1.112V63.044h0V50.535Zm2.224-13.509V48.311h24.795V37.026ZM273.23,34.858h66.1V32.523H263.724v2.335h9.507Zm39.027,26.963h24.795V50.535H312.257Zm9.229,8.9a1.112,1.112,0,0,1,0-2.224h6.393a1.112,1.112,0,1,1,0,2.224Z" transform="translate(-261.5)"/>
</svg>
