<svg xmlns="http://www.w3.org/2000/svg" viewBox="0 0 54.906 80">
  <defs>
    <style>
      .cls-1 {
        fill: #333;
      }
    </style>
  </defs>
  <path id="Path_12743" data-name="Path 12743" class="cls-1" d="M24.131,320.021H19.293l.423,2.661h3.991Zm41.361,0H60.654l.423,2.661h3.991ZM38.764,252.175a7.189,7.189,0,0,0-5.019-2.116,6.839,6.839,0,0,0-5.019,2.116,7.189,7.189,0,0,0-2.116,5.019,6.839,6.839,0,0,0,2.116,5.019,7.189,7.189,0,0,0,5.019,2.116,6.839,6.839,0,0,0,5.019-2.116,7.189,7.189,0,0,0,2.116-5.019A7.459,7.459,0,0,0,38.764,252.175Zm-1.33-3.749a8.667,8.667,0,0,1,3.023,2.056,7.49,7.49,0,0,1,1.088,1.33,2.75,2.75,0,0,0,.6-1.693,2.651,2.651,0,0,0-4.535-1.875Zm-7.438,0a.834.834,0,0,1-.181-.242,2.661,2.661,0,0,0-4.535,1.875,2.622,2.622,0,0,0,.6,1.693,11.59,11.59,0,0,1,1.088-1.33A12.484,12.484,0,0,1,30,248.426ZM28.485,268.8H39.006l-1.572-2.842a9.738,9.738,0,0,1-7.377,0Zm37.188,7.5H19.112v19.471H65.673ZM17.9,273.944H67.426v-2.782H17.419v2.782Zm20.438,13.3a1.209,1.209,0,1,1,0-2.419h8.1a1.209,1.209,0,1,1,0,2.419ZM19.112,298.191V317.6H65.673V298.131H19.112Zm7.438,21.829-.6,4.051A1.169,1.169,0,0,1,24.8,325.1H18.749a1.237,1.237,0,0,1-1.209-1.088l-.726-4.837c0-.121-.06-.181-.06-.3V276.423h-.544A1.213,1.213,0,0,1,15,275.213v-5.14a1.213,1.213,0,0,1,1.209-1.209h9.735a1.3,1.3,0,0,1,.121-.665l1.875-3.386a6.473,6.473,0,0,1-.967-.847,9.553,9.553,0,0,1-2.237-9.917l-.363-.363a5.046,5.046,0,0,1,7.135-7.135,4.842,4.842,0,0,1,.907,1.27,9.36,9.36,0,0,1,1.33-.06c.423,0,.907.06,1.33.06a4.842,4.842,0,0,1,.907-1.27,5.046,5.046,0,0,1,7.135,7.135l-.363.363a9.143,9.143,0,0,1,.544,3.2,9.561,9.561,0,0,1-2.782,6.712,12.111,12.111,0,0,1-.967.847l1.875,3.386a.84.84,0,0,1,.121.665H68.7a1.213,1.213,0,0,1,1.209,1.209v5.14a1.213,1.213,0,0,1-1.209,1.209h-.484v42.388a.545.545,0,0,1-.06.3l-.786,4.958a1.169,1.169,0,0,1-1.149,1.028H60.17a1.237,1.237,0,0,1-1.209-1.088l-.6-3.93H26.55Zm11.791-10.945a1.209,1.209,0,0,1,0-2.419h8.1a1.209,1.209,0,0,1,0,2.419Zm-7.075-56.417a1.188,1.188,0,0,1,2.3-.6l1.33,4.9a1.129,1.129,0,0,1-.665,1.391h0l-3.2,1.391a1.191,1.191,0,1,1-.967-2.177l2.3-.967Z" transform="translate(-15 -245.1)"/>
</svg>
