<svg xmlns="http://www.w3.org/2000/svg" viewBox="0 0 80 34.305">
  <defs>
    <style>
      .cls-1 {
        fill: #333;
      }
    </style>
  </defs>
  <path id="Path_12742" data-name="Path 12742" class="cls-1" d="M33.03,53.959,31.071,52,16.9,66.214l1.458,1.458.5.5Zm4.92,2.369-2.415-2.415L20.091,69.4l2.369,2.369Zm23.964-4.055-2.187-2.187L47.7,62.114l1.276,1.276.911.911Zm-8.565,15.49L57.4,71.818,73.03,56.192l-2.779-2.779-.683.683h0L54.624,69.039Zm-1.458-1.5,1.458,1.458L67.7,53.413l-2.187-2.187-1.686,1.686h0L51.162,65.577ZM39.909,56.921l-.046.046-.046.046h0L23.189,73.64l-.046.046a.881.881,0,0,1-1.276,0l-3.645-3.645h0L5.011,56.875l-2.87,2.87L22.46,80.064,39.317,63.208a.881.881,0,0,1,1.276,0L57.449,80.064,77.768,59.745l-2.87-2.87L58.087,73.686a.881.881,0,0,1-1.276,0l-.046-.046L52.8,69.677h0l-.046-.046-.046-.046h0l-3.371-3.371h0l-.046-.046-.046-.046h0l-1.185-1.185-8.109-8.064Zm-8.2-6.834,2.6,2.6.638-.638a.881.881,0,0,1,1.276,0l3.007,3.007.137-.137a.881.881,0,0,1,1.276,0l5.831,5.923L59.134,48.173a.881.881,0,0,1,1.276,0L63.235,51l1.686-1.686a.881.881,0,0,1,1.276,0l2.825,2.825.683-.683a.881.881,0,0,1,1.276,0L74.4,54.87a.9.9,0,0,1,1.185.046l4.146,4.146a.881.881,0,0,1,0,1.276L58.132,81.932a.881.881,0,0,1-1.276,0L40,65.075,23.144,81.932a.881.881,0,0,1-1.276,0L.273,60.383a.881.881,0,0,1,0-1.276l4.146-4.146a.881.881,0,0,1,1.276,0l9.977,9.977L30.478,50.132A.866.866,0,0,1,31.708,50.087Z" transform="translate(0 -47.9)"/>
</svg>
