<svg id="Group_363" data-name="Group 363" xmlns="http://www.w3.org/2000/svg" viewBox="0 0 181 32.632">
  <defs>
    <style>
      .cls-1 {
        fill: #333;
      }
    </style>
  </defs>
  <g id="Group_2" data-name="Group 2" transform="translate(0 1.087)">
    <path id="Path_4" data-name="Path 4" class="cls-1" d="M176.681,76.712h-11.55a.915.915,0,0,1-.931-.931V66.031a.915.915,0,0,1,.931-.931h11.55a.915.915,0,0,1,.931.931v9.749A.915.915,0,0,1,176.681,76.712Z" transform="translate(-113.219 -45.974)"/>
    <path id="Path_5" data-name="Path 5" class="cls-1" d="M155.738,35H125.311a1.212,1.212,0,0,0-1.211,1.211V54.747a1.212,1.212,0,0,0,1.211,1.211h5.806a1.212,1.212,0,0,0,1.211-1.211V41.955a1.212,1.212,0,0,1,1.211-1.211h19.436a1.212,1.212,0,0,1,1.211,1.211V54.747a1.212,1.212,0,0,0,1.211,1.211H161.2a1.212,1.212,0,0,0,1.211-1.211V36.211A1.212,1.212,0,0,0,161.2,35Z" transform="translate(-85.569 -25.22)"/>
    <path id="Path_6" data-name="Path 6" class="cls-1" d="M19,9.616H62.22C80.1,9.616,79.7,3.5,79.7,3.5H14.562c-5.247.031-9.5,4.005-9.5,8.88a8.811,8.811,0,0,0,5.34,7.948h0a14.3,14.3,0,0,0,1.739.652h.031c.062.031.124.031.186.062h.031c.155.062.31.093.466.155h.031a.731.731,0,0,0,.248.062h0c.186.062.373.093.59.155h.031c.31.093.652.155.994.248h.031c.373.093.745.186,1.149.279h.031c.4.093.838.186,1.335.279,1.366.279,2.981.559,4.875.838,1.459.186,2.919,1.211,2.919,2.7a2.878,2.878,0,0,1-2.919,2.7H0s1.087,6.179,20.833,6.179l5.247-.062c.031,0,1.3-.124,1.335-.124,5.464-.186,8.166-3.974,8.166-8.88,0-4.191-2.484-7.389-7.234-8.631h-.062c-.093-.031-.31-.062-.621-.124h-.031c-.062,0-.124-.031-.186-.031h-.031c-.062,0-.124-.031-.217-.031h0c-.062,0-.155-.031-.217-.031H26.95a.731.731,0,0,1-.248-.062H26.67a4.628,4.628,0,0,1-.559-.124H26.08c-.093-.031-.186-.031-.279-.062H25.77c-.217-.031-.4-.093-.621-.124h-.031c-.093-.031-.217-.031-.342-.062h-.031c-.217-.062-.466-.093-.683-.155h-.031a.4.4,0,0,0-.248-.062h-.031c-2.267-.528-4.657-.994-6.241-1.521l-.745-.373a2.643,2.643,0,0,1-1.552-2.111,2.79,2.79,0,0,1,2.732-2.453" transform="translate(0 -3.5)"/>
  </g>
  <g id="Group_3" data-name="Group 3" transform="translate(91.985)">
    <path id="Path_7" data-name="Path 7" class="cls-1" d="M289.952,15s1.18,1.056,1.894,1.8a.52.52,0,0,1-.559.373h-3.974v4.378c0,.155-.528.559-1.335.559H285.7V17.176h-3.943l-.155-.683h4.1V13.761h-1.614v.528c0,.155-.621.559-1.242.559h-.186V5.409l1.583.807h1.49V4.043H281.91l-.155-.683h3.974V.1l2.329.248c-.031.342-.217.559-.683.621V3.36h1.49l1.025-1.521s1.149,1.056,1.863,1.832a.52.52,0,0,1-.559.373h-3.819V6.216h1.459l.807-.994,1.708,1.521a1.306,1.306,0,0,1-.807.4v6.893c0,.155-.745.559-1.273.559h-.248v-.838h-1.708v2.732h1.615Zm-5.837-8.1V9.539h1.677V6.9Zm0,6.148h1.677V10.253h-1.677ZM287.251,6.9V9.539h1.739V6.9Zm1.739,6.148V10.253h-1.739v2.794Zm10.4-4.781s1.211,1.149,1.925,1.925a.52.52,0,0,1-.559.373h-4.316V21.492a1.562,1.562,0,0,1-1.428.621h-.279V10.594h-3.819l-.155-.714h4.005V2.8h-3.229l-.155-.683h6.489L298.894.6s1.18,1.087,1.925,1.832c-.031.248-.248.373-.559.373H296.5V9.88H298.4Z" transform="translate(-281.6 -0.069)"/>
    <path id="Path_8" data-name="Path 8" class="cls-1" d="M360.437,10.694c4.067,1.863,2.918,4.843,1.583,3.695a8.68,8.68,0,0,0-1.583-3.1V21.53a1.487,1.487,0,0,1-1.335.652h-.279V12.464a20.134,20.134,0,0,1-3.1,2.825l-.217-.217a26.163,26.163,0,0,0,5.558-9.19H356.09L355.9,5.2h5.123l1.025-1.118,1.739,1.925c-.186.186-.466.217-.931.279a21.972,21.972,0,0,1-2.36,4.16v.248ZM358.232.2c4.564,1.521,3.012,5.03,1.459,3.633A8.254,8.254,0,0,0,358.015.355ZM373.2.51s1.211,1.056,1.956,1.832a.52.52,0,0,1-.559.373H363.448l-.155-.683h8.849Zm0,10.4,1.863,1.646a1.52,1.52,0,0,1-.9.466v8.445a2.063,2.063,0,0,1-1.335.559h-.279v-1.3h-7.358v.869c0,.186-.683.59-1.335.59H363.6V11.16L365.28,12h7.048Zm-1.646-.621V9.452h-5.278v.559c0,.155-.714.559-1.335.559h-.217V4.112l1.677.838h4.968l.869-1.056L374.1,5.509a1.748,1.748,0,0,1-.9.466V9.763a2.074,2.074,0,0,1-1.335.528Zm-6.365,2.422v3.167h2.981V12.712Zm0,7.327h2.981V16.593h-2.981Zm6.365-11.27V5.633h-5.278V8.769h5.278Zm-1.925,3.943v3.167h2.919V12.712Zm2.919,7.327V16.593h-2.919V20.04Z" transform="translate(-332.556 -0.138)"/>
    <path id="Path_9" data-name="Path 9" class="cls-1" d="M441.56,6.334c1.863,4.843,5.278,9,8.662,10.929l-.062.248a2.115,2.115,0,0,0-1.646,1.646c-3.167-2.546-5.775-6.924-7.3-12.574V21.3c0,.248-.745.714-1.4.714h-.341V8.942a25.413,25.413,0,0,1-8.6,10.743l-.279-.31a30.033,30.033,0,0,0,7.793-13.04h-7.3l-.155-.714h8.569V0l2.484.31c-.031.342-.217.559-.745.683V5.62h5.309l1.211-1.708s1.366,1.18,2.2,2.018a.535.535,0,0,1-.59.373H441.56Z" transform="translate(-384.338)"/>
    <path id="Path_10" data-name="Path 10" class="cls-1" d="M516.877,15.258a18.592,18.592,0,0,0,8.259,4.688l-.031.248a1.849,1.849,0,0,0-1.335,1.521,16.082,16.082,0,0,1-7.483-6.489h-.155v6.427a1.742,1.742,0,0,1-1.428.528h-.279V16.19a20.944,20.944,0,0,1-8.538,5.5l-.186-.373a22.431,22.431,0,0,0,7.3-6.085H506.29l-.186-.683h8.321V12.216h-6.117l-.155-.683h6.3v-2.2h-7.141l-.186-.683h5.185l-.093-.093a6.751,6.751,0,0,0-1.335-3.136H506.01l-.155-.683h6.986V.2l2.173.248c-.031.31-.217.528-.683.59V4.764h1.987V.2l2.173.248c-.031.31-.186.528-.652.621V4.764h.683a26.237,26.237,0,0,0,1.987-4.1l2.235.9a.709.709,0,0,1-.807.373,21.717,21.717,0,0,1-2.794,2.825h2.763l1.025-1.428s1.211.994,1.925,1.708a.5.5,0,0,1-.559.373h-5.154l1.273.466a.717.717,0,0,1-.807.435,16.9,16.9,0,0,1-2.2,2.329h3.446l1.056-1.428s1.149.994,1.894,1.739a.52.52,0,0,1-.559.373H516.1v2.2h3.788l.962-1.366s1.118.962,1.8,1.677c-.062.248-.217.373-.559.373H516.07v2.329h5.558l1.087-1.49s1.211,1.056,1.987,1.8a.52.52,0,0,1-.559.373h-7.265ZM508.494.728c4.347,1.428,3.043,4.937,1.552,3.633a6.857,6.857,0,0,0-1.8-3.446Zm3.2,4.688c2.142,1.056,2.267,2.639,1.677,3.229h3.322a24.724,24.724,0,0,0,1.4-3.229Z" transform="translate(-436.121 -0.138)"/>
  </g>
  <g id="Group_4" data-name="Group 4" transform="translate(93.289 27.322)">
    <path id="Path_11" data-name="Path 11" class="cls-1" d="M290.923,92.467h-1.149v.5a.5.5,0,0,1-.124.373.8.8,0,0,1-.559.155h-.559l-.124-.466h.714a.114.114,0,0,0,.124-.124v-.435H285.8v-.435h3.446v-.186h.528v.186h1.149Zm-.062-.776-.435.248c-.124-.124-.186-.248-.248-.279-1.646.093-3.043.124-4.129.124l-.124-.4H288.1v-.31h-1.8V89.362h1.8v-.279h-2.236v-.4H288.1V88.4h.5v.279h2.2v.4h-2.2v.279h1.832V91.07h-.155A5.437,5.437,0,0,1,290.861,91.691Zm-2.763,1.4-.4.373a5.816,5.816,0,0,0-.931-.528l.4-.373A3.327,3.327,0,0,1,288.1,93.088Zm0-3.074v-.279h-1.273v.279Zm0,.621v-.279h-1.273v.279Zm1.832-.621v-.279h-1.3v.279Zm0,.621v-.279h-1.3v.279Zm0,.4h-1.335v.31c.528-.031.931-.031,1.211-.062-.031-.062-.093-.093-.124-.124Z" transform="translate(-285.8 -88.276)"/>
    <path id="Path_12" data-name="Path 12" class="cls-1" d="M321.485,92.095h-2.329v1.428h-.528V92.095h-2.3V91.66h2.3v-.31H316.61v-.435h2.018v-.279h-2.173V90.2h1.335a.836.836,0,0,0-.217-.248l.4-.217H316.3V89.3h1.8v-.869h.528V89.3h.528v-.869h.528V89.3h1.77v.435h-1.615l.341.186c-.062.124-.155.217-.186.279h1.366v.435h-2.173v.279h2.049v.435h-2.049v.31h2.329v.435Zm-3.291.5a8.086,8.086,0,0,1-1.521.9l-.342-.4a7.677,7.677,0,0,0,1.459-.807Zm-.5-3.633-.4.279a4.225,4.225,0,0,0-.528-.528l.4-.31A2.91,2.91,0,0,1,317.7,88.959Zm1.956.745H318.1c.124.124.217.31.342.466h.9A1.74,1.74,0,0,0,319.653,89.7Zm1.925,3.353-.279.435a10.33,10.33,0,0,0-1.677-.807l.31-.435A15.844,15.844,0,0,1,321.578,93.057Zm-.559-4.409a6.491,6.491,0,0,1-.5.559l-.466-.279a4.234,4.234,0,0,0,.528-.528Z" transform="translate(-306.83 -88.276)"/>
    <path id="Path_13" data-name="Path 13" class="cls-1" d="M350.822,94.04h-.932l-1.583-2.018a.649.649,0,0,1-.124-.186h0v2.2H347.5V89.6h.683v2.111h0a.65.65,0,0,1,.124-.186l1.521-1.925h.838l-1.8,2.142Z" transform="translate(-328.343 -89.103)"/>
    <path id="Path_14" data-name="Path 14" class="cls-1" d="M371.6,94.04V89.6h1.366c1.583,0,2.36.714,2.36,2.173a2.178,2.178,0,0,1-.683,1.677,2.479,2.479,0,0,1-1.739.621h-1.3Zm.683-3.85v3.26h.621a1.776,1.776,0,0,0,1.242-.435,1.615,1.615,0,0,0,.466-1.242,1.523,1.523,0,0,0-.435-1.18,1.712,1.712,0,0,0-1.242-.4Z" transform="translate(-344.961 -89.103)"/>
    <path id="Path_15" data-name="Path 15" class="cls-1" d="M398.559,88.124c-.031.186-.124.435-.217.745l-.155.466v3.85h-.528v-2.7c-.093.155-.186.279-.279.435l-.279-.559a7.443,7.443,0,0,0,.931-2.36Zm3.85,4.5-.31.4a4.721,4.721,0,0,1-1.056-.994,1.506,1.506,0,0,1-.217.994.862.862,0,0,1-.683.217h-.4l-.186-.5c.186,0,.31.031.435.031a1.289,1.289,0,0,0,.4-.031.21.21,0,0,0,.124-.186,1.649,1.649,0,0,0,.031-.435v-.248a7.522,7.522,0,0,1-1.863,1.056l-.248-.435a6.522,6.522,0,0,0,2.049-1.149c-.031-.124-.062-.217-.093-.311a7.4,7.4,0,0,1-1.615.963l-.279-.4a5.147,5.147,0,0,0,1.708-.962,1.846,1.846,0,0,1-.124-.186,7.507,7.507,0,0,1-1.242.59l-.279-.435a5.02,5.02,0,0,0,1.428-.652h-.621V89.49h2.267v.466h-.9a1.776,1.776,0,0,1-.248.217,2.241,2.241,0,0,1,.435.745,4.369,4.369,0,0,0,1.056-.683l.342.373a5.436,5.436,0,0,1-1.211.776A4.2,4.2,0,0,0,402.409,92.626Zm-.155-2.887h-.528v-.621h-2.577v.621h-.528V88.621h1.49a1.854,1.854,0,0,0-.279-.466L400.36,88c.124.186.217.4.342.621h1.521v1.118Z" transform="translate(-362.544 -88)"/>
    <path id="Path_16" data-name="Path 16" class="cls-1" d="M429.377,88.155q-.093.279-.279.745l-.186.435v3.912h-.528V90.267a1.983,1.983,0,0,1-.4.466l-.279-.559A5.708,5.708,0,0,0,428.818,88Zm1.366,4.285a4.242,4.242,0,0,1-1.366.838l-.342-.435a5.172,5.172,0,0,0,1.3-.776Zm2.2-.435h-3.788v-.435h.466V88.155h2.825v3.415h.5Zm-.994-2.981v-.4h-1.77v.4Zm0,.869v-.435h-1.77v.435Zm0,.869V90.3h-1.77v.466Zm0,.838v-.4h-1.77v.4Zm.963,1.3-.373.373a5.168,5.168,0,0,0-1.118-.807l.372-.373A7.5,7.5,0,0,1,432.916,92.906Z" transform="translate(-383.643 -88)"/>
    <path id="Path_17" data-name="Path 17" class="cls-1" d="M460.68,89.325H458.6v-.466h.807a1.893,1.893,0,0,0-.217-.435l.528-.124a4.943,4.943,0,0,1,.248.559h.714Zm-.155.869h-1.77v-.466h1.77Zm0,.838h-1.77v-.466h1.77Zm.031,2.267h-.528V93.05h-.745v.373h-.5V91.374h1.77Zm-.528-.714v-.714h-.745v.714Zm3.819.435-.248.466a4.7,4.7,0,0,1-1.366-.683,5.625,5.625,0,0,1-1.273.714l-.31-.435a3.431,3.431,0,0,0,1.211-.621,4.9,4.9,0,0,1-.745-1.211h-.279v-.5h2.577v.5a4.3,4.3,0,0,1-.807,1.211A5.142,5.142,0,0,0,463.847,93.019Zm-.062-2.608h-.776a.426.426,0,0,1-.4-.4V88.952H461.8v.342a1.652,1.652,0,0,1-.186.745,1.315,1.315,0,0,1-.528.559l-.373-.373a1.158,1.158,0,0,0,.59-1.087v-.683h1.832v1.3c0,.031.031.062.062.093a.114.114,0,0,0,.093.031h.466v.528Zm-.931.807h-1.18a4.219,4.219,0,0,0,.559.869A2.849,2.849,0,0,0,462.854,91.219Z" transform="translate(-404.949 -88.207)"/>
    <path id="Path_18" data-name="Path 18" class="cls-1" d="M491.753,89.225H489.3v-.466h.962a3.119,3.119,0,0,0-.217-.466l.559-.093a2.1,2.1,0,0,1,.248.59h.9Zm-.279.9h-1.956v-.466h1.956Zm0,.838h-1.956V90.5h1.956Zm.031,2.329h-.528v-.31h-.9v.373h-.528V91.336H491.5Zm-.528-.745v-.714h-.9v.714Zm3.477-2.173h-1.087v3.012h-.528V90.373h-1.056v-.528h1.056V88.231h.528v1.614h1.087Z" transform="translate(-426.117 -88.138)"/>
    <path id="Path_19" data-name="Path 19" class="cls-1" d="M521.583,88.155c-.062.217-.155.435-.186.559l-.186.466v4.005h-.528V90.173a5.442,5.442,0,0,1-.4.559L520,90.173A6.448,6.448,0,0,0,521.056,88Zm3.539,1.77-2.018.217a4.661,4.661,0,0,0,.5,1.925c.28.435.5.683.621.683.186,0,.279-.342.341-1.025l.528.248c-.093.9-.373,1.335-.807,1.335-.342,0-.683-.248-1.025-.776a5.2,5.2,0,0,1-.683-2.36l-1.149.124-.031-.5,1.118-.093c-.031-.435-.031-.963-.031-1.583h.528c0,.652,0,1.18.031,1.521l2.049-.186Zm-.373-.9-.435.342a4.2,4.2,0,0,0-.807-.869l.4-.342A4.4,4.4,0,0,1,524.75,89.025Z" transform="translate(-447.286 -88)"/>
    <path id="Path_20" data-name="Path 20" class="cls-1" d="M555.754,93.719H550.6v-.528h2.3V89.528h-2.049V89h4.657v.559h-2.049v3.664h2.3Z" transform="translate(-468.385 -88.69)"/>
  </g>
</svg>
