<svg xmlns="http://www.w3.org/2000/svg" viewBox="0 0 64.589 71">
  <defs>
    <style>
      .cls-1 {
        fill: #333;
      }
    </style>
  </defs>
  <path id="Path_12708" data-name="Path 12708" class="cls-1" d="M531.6,224.066h-5.109a3.118,3.118,0,0,1-.385.434,9.286,9.286,0,0,0-2.6,6.7h11.086a9.391,9.391,0,0,0-2.6-6.7c-.145-.145-.241-.289-.386-.434Zm-3.9-1.88h2.651a3.736,3.736,0,0,1-.289-1.109h-2.121A2.858,2.858,0,0,1,527.7,222.186Zm5.3,36.1h-9.5l-1.157,12.532h11.809Zm.289-7.953h.337a.964.964,0,0,0,0-1.928H522.878a.954.954,0,0,0-.675,1.639h0a.952.952,0,0,0,.675.289H533.29Zm-.819,1.88h-8.387l-.386,4.193h9.158Zm26.462-9.4v-2.362H504.224v39.669h7.519V243.732a.967.967,0,0,1,.964-.964h46.225Zm4.049-27.137h-2.169v64.445h2.169Zm2.844-1.88a.964.964,0,0,1,0,1.928h-.964v65.409a.967.967,0,0,1-.964.964h-4.049a.967.967,0,0,1-.964-.964V244.744H513.575v36.392a.967.967,0,0,1-.964.964h-9.447a.967.967,0,0,1-.964-.964V239.49a.967.967,0,0,1,.964-.964h55.672v-22.9h-.819a.964.964,0,1,1,0-1.928Zm-42.947,32.728h10.749a3.06,3.06,0,0,1,2.024.819h0a2.761,2.761,0,0,1,.819,2.024,3.06,3.06,0,0,1-.819,2.024,2.682,2.682,0,0,1-1.3.723L537,280.991a.943.943,0,1,1-1.88.145l-.771-8.435H522.2l-.771,8.435a.943.943,0,0,1-1.88-.145l2.651-28.872a3.138,3.138,0,0,1-1.3-.723h0a2.939,2.939,0,0,1-.819-1.976,3.06,3.06,0,0,1,.819-2.024A2.525,2.525,0,0,1,522.878,246.528Zm5.254-27.33v-7.134a.964.964,0,1,1,1.928,0V219.2h1.012a.967.967,0,0,1,.964.964v.1a4.15,4.15,0,0,0,1.446,3.037c1.446,1.639,3.181,3.663,3.085,8.917a.927.927,0,0,1-.964.916H522.589a.967.967,0,0,1-.964-.964v-.1c-.048-5.206,1.687-7.182,3.085-8.821a4.171,4.171,0,0,0,1.446-3.085.927.927,0,0,1,.916-.964h1.06Z" transform="translate(-502.2 -211.1)"/>
</svg>
