<svg xmlns="http://www.w3.org/2000/svg" viewBox="0 0 80 41.439">
  <defs>
    <style>
      .cls-1 {
        fill: #333;
      }
    </style>
  </defs>
  <path id="Path_12735" data-name="Path 12735" class="cls-1" d="M10.82,98.737V70.075H7.482V98.794H10.82ZM72.46,70.075H69.122V98.794H72.46Zm-30.734,0H38.388V98.794h3.338V70.075Zm-.46-2.245H77.64V61.9H41.266Zm-34.935,0H38.964V61.9H2.245V67.83Zm6.734,2.245V99.888a1.154,1.154,0,0,1-1.151,1.151H6.331A1.154,1.154,0,0,1,5.18,99.888V70.075H1.151A1.154,1.154,0,0,1,0,68.924V60.751A1.154,1.154,0,0,1,1.151,59.6h77.7A1.154,1.154,0,0,1,80,60.751v8.173a1.154,1.154,0,0,1-1.151,1.151H74.763V99.888a1.154,1.154,0,0,1-1.151,1.151H68.029a1.154,1.154,0,0,1-1.151-1.151V70.075H43.971V99.888a1.154,1.154,0,0,1-1.151,1.151H37.237a1.154,1.154,0,0,1-1.151-1.151V70.075Z" transform="translate(0 -59.6)"/>
</svg>
