<svg xmlns="http://www.w3.org/2000/svg" viewBox="0 0 40 28.404">
  <defs>
    <style>
      .cls-1 {
        fill: #9a5a11;
      }
    </style>
  </defs>
  <g id="Group_1129" data-name="Group 1129" transform="translate(295 861.404) rotate(180)">
    <path id="Path_322" data-name="Path 322" class="cls-1" d="M3.3,0A12.769,12.769,0,0,0,1.915,2.979a13.376,13.376,0,0,0-.532,3.511,9.681,9.681,0,0,0,.532,2.766A11.215,11.215,0,0,0,3.3,12.021H9.681a10.723,10.723,0,0,1-.426,4.043,12.935,12.935,0,0,1-1.915,3.83,15.12,15.12,0,0,1-3.191,3.191A15.322,15.322,0,0,1,0,25.213L1.915,28.4A18.236,18.236,0,0,0,9.362,25a19.074,19.074,0,0,0,5.745-6.809,20.713,20.713,0,0,0,2.34-10.426A22.414,22.414,0,0,0,15.532,0Z" transform="translate(272.447 861.404) rotate(180)"/>
    <path id="Path_323" data-name="Path 323" class="cls-1" d="M3.3,0A12.769,12.769,0,0,0,1.915,2.979a13.376,13.376,0,0,0-.532,3.511,9.681,9.681,0,0,0,.532,2.766A11.215,11.215,0,0,0,3.3,12.021H9.681a10.724,10.724,0,0,1-.426,4.043,12.935,12.935,0,0,1-1.915,3.83,15.12,15.12,0,0,1-3.191,3.191A15.322,15.322,0,0,1,0,25.213L1.915,28.4A18.236,18.236,0,0,0,9.362,25a19.074,19.074,0,0,0,5.745-6.809,20.713,20.713,0,0,0,2.34-10.426A24.4,24.4,0,0,0,15.532,0Z" transform="translate(295 861.404) rotate(180)"/>
  </g>
</svg>
