<svg xmlns="http://www.w3.org/2000/svg" viewBox="0 0 55.133 76">
  <defs>
    <style>
      .cls-1 {
        fill: #333;
      }
    </style>
  </defs>
  <path id="Path_12629" data-name="Path 12629" class="cls-1" d="M1229.293,607.5V596.1h0v-.892h-2.974V607.5Zm4.858,0V597.09h-2.974V607.5Zm1.983-11.4h0v11.4h2.975V595.206h-2.975Zm7.833,11.4V597.238h-2.975V607.5Zm4.908,0V596.891H1245.9V607.5Zm4.908,0V595.206h-2.975v.694h0v11.6Zm1.934-12.295V607.5h2.974V595.206Zm-7.238,44.569h-12.295V642.5h12.295Zm1.339-4.66h-11.5v2.727h12.295v-2.727Zm-12.493-1.933h11.5v-2.727h-12.295v2.727ZM1222.1,630.6v11.9h2.975V630.6Zm-4.908,0v11.9h2.974V630.6Zm-6.841,0h-2.974v11.9h2.974Zm.991,13.881h-3.768l.347,2.082h3.123l.3-2.082Zm47.147,0h-3.817l.347,2.082h3.173Zm-46.2-13.881v11.9h2.975V630.6Zm43.429-17.748h0v12.2h2.974V612.756h-2.974Zm-4.908.992v11.2h2.975v-11.2Zm-4.908-.4h0V625h2.974V612.855h0v-.1H1245.9Zm-4.859.992V625h2.974v-10.56Zm-4.908-1.041h0v11.65h2.975V612.756h-2.975Zm-6.842-.694h-2.974V625h2.974V613.4h0Zm1.934,1.636V625h2.974V614.342Zm-19.136,2.826v2.974h12.295v-2.974Zm7.635,4.908H1207.43v2.975h12.295Zm1.933,2.925h2.727v-2.975h-2.727Zm37.033-15.517H1207.38v10.659h2.727v-3.917a.994.994,0,0,1,.991-.992h13.286v-3.47a.994.994,0,0,1,.991-.992h4.908a1,1,0,0,1,.992.992v.644h2.974v-.644a.994.994,0,0,1,.991-.992h4.908a.994.994,0,0,1,.991.992v.744h2.975v-.744a.994.994,0,0,1,.991-.992h4.908a.994.994,0,0,1,.992.992v.149h2.974v-.149a1,1,0,0,1,.992-.992h3.917v-1.289Zm-33.365-16.211h4.908a.994.994,0,0,1,.991.991v.892h2.974v-.892a.994.994,0,0,1,.992-.991h4.908a1,1,0,0,1,.991.991v1.091h3.173a1.054,1.054,0,0,1,.744-.347h3.916v-.694a.994.994,0,0,1,.992-.992h8.824v-1.289h-51.262V607.6h16.955V594.313A.931.931,0,0,1,1225.327,593.272ZM1206.438,572.5h53.2a.994.994,0,0,1,.991.992v70h0v.05h0v.1h0l-.595,3.966a.959.959,0,0,1-.942.843h-4.809a1.014,1.014,0,0,1-.991-.892l-.5-3.123h-39.463l-.5,3.222a1.008,1.008,0,0,1-.992.843h-4.759a.924.924,0,0,1-.942-.843l-.595-3.917c0-.049-.05-.149-.05-.2h0v-70A.939.939,0,0,1,1206.438,572.5Zm36.488,9.667v2.975h12.295v-2.975Zm10.163,4.908h-12.295v2.974h12.295Zm-21.863-9.419-2.082.744,3.371,9.519,2.082-.744Zm-4.214.446V590h4.611a.982.982,0,0,1-.545-.545l-4.065-11.353Zm-4.908.3h0V590h2.975V577.706H1222.1Zm-4.908.992V590.05h2.974V579.391Zm-6.841-1.686h-2.974V590h2.974Zm1.933,0V590h2.975V578.4h0v-.694Zm-4.858-1.933h8.825a.994.994,0,0,1,.991.992v.694h2.975v-.694a.994.994,0,0,1,.991-.992h4.908a.994.994,0,0,1,.991.992v.744a.894.894,0,0,1,.595-.595l3.917-1.388a.976.976,0,0,1,1.239.595l4.065,11.3a.976.976,0,0,1-.595,1.239l-3.817,1.388h6.494v-3.917a1,1,0,0,1,.992-.991h1.14v-3.966a.994.994,0,0,1,.992-.991h14.228a.994.994,0,0,1,.992.991v4.908a.994.994,0,0,1-.992.992h-1.14v2.974h3.619V574.483h-51.262v1.289Zm26.821,66.779v-3.718a.994.994,0,0,1,.991-.992h1.14v-2.727h-.793a.994.994,0,0,1-.992-.992v-4.66a.994.994,0,0,1,.992-.992h14.228a.994.994,0,0,1,.992.992v3.718h.793a1,1,0,0,1,.992.992v4.66a1,1,0,0,1-.992.992h-1.14v2.727h8.229V626.984H1207.38v1.686h18.641a.994.994,0,0,1,.992.991v12.89Z" transform="translate(-1205.492 -572.5)"/>
</svg>
