<svg xmlns="http://www.w3.org/2000/svg" viewBox="0 0 80 68.49">
  <defs>
    <style>
      .cls-1 {
        fill: #333;
      }
    </style>
  </defs>
  <path id="Path_12628" data-name="Path 12628" class="cls-1" d="M809.515,423.91a1.211,1.211,0,0,1,0-2.422h7.267a1.211,1.211,0,1,1,0,2.422Zm42.632,14.231a1.211,1.211,0,1,1,0-2.422h7.267a1.211,1.211,0,1,1,0,2.422Zm-42.632,0a1.211,1.211,0,0,1,0-2.422h7.267a1.211,1.211,0,1,1,0,2.422Zm0,14.231a1.211,1.211,0,0,1,0-2.422h7.267a1.211,1.211,0,0,1,0,2.422Zm42.632,0a1.211,1.211,0,0,1,0-2.422h7.267a1.211,1.211,0,0,1,0,2.422Zm0,14.231a1.211,1.211,0,0,1,0-2.422h7.267a1.211,1.211,0,0,1,0,2.422Zm-42.632,0a1.211,1.211,0,0,1,0-2.422h7.267a1.211,1.211,0,0,1,0,2.422ZM798.13,414.463h73.94v-2.241H796.8v2.241Zm1.211,14.17h70.246V416.764H799.342Zm70.246,2.362H799.342v11.869h70.246Zm-70.246,26.1h70.246V445.226H799.342Zm70.064,16.593h-4.057l.363,2.18H869.1Zm-65.765,0h-4.057l.363,2.18h3.391Zm-4.3-2.362h70.185V459.456H799.281v11.869ZM795.648,409.8h77.634a1.215,1.215,0,0,1,1.211,1.211v4.663a1.215,1.215,0,0,1-1.211,1.211h-1.332V429.9h0v28.462h0v14.291h0v.061h0v.061h0l-.666,4.421a1.171,1.171,0,0,1-1.151,1.03h-5.45a1.239,1.239,0,0,1-1.211-1.09l-.545-3.452H806.063l-.545,3.573a1.171,1.171,0,0,1-1.151,1.029h-5.45a1.239,1.239,0,0,1-1.211-1.09l-.666-4.421V472.6h0V458.366h0V429.9h0v-13.02h-1.332a1.215,1.215,0,0,1-1.211-1.211v-4.663A1.129,1.129,0,0,1,795.648,409.8Zm56.5,14.11a1.211,1.211,0,1,1,0-2.422h7.267a1.211,1.211,0,1,1,0,2.422Z" transform="translate(-794.492 -409.8)"/>
</svg>
