<svg xmlns="http://www.w3.org/2000/svg" viewBox="0 0 60 76.428">
  <defs>
    <style>
      .cls-1 {
        fill: #333;
      }
    </style>
  </defs>
  <path id="Path_12627" data-name="Path 12627" class="cls-1" d="M26.891,835.954a1.011,1.011,0,0,1,0-2.022h6.116a1.011,1.011,0,0,1,0,2.022Zm-3.184-33.462a1.011,1.011,0,1,1,2.022,0v6.116a1.011,1.011,0,1,1-2.022,0Zm10.564,0a1.011,1.011,0,1,1,2.022,0v6.116a1.011,1.011,0,1,1-2.022,0Zm23.707-24.87H1.971v1.617H57.928v-1.617ZM55.754,831.91H4.2v6.167H55.754Zm0,8.138H4.2v6.167H55.754ZM8.441,848.186H5l.3,1.871H8.189Zm46.5,0H51.508l.3,1.871h2.881Zm-23.96-66.975v48.678H55.754V781.16H30.986Zm-2.022,48.678V781.16H4.2v48.729Zm28.762-48.678V830.9h0v16.276a1.021,1.021,0,0,1-.809.961l-.455,3.033a.977.977,0,0,1-.96.859H50.9a1.034,1.034,0,0,1-1.011-.91l-.455-2.932H10.463l-.455,2.983a.977.977,0,0,1-.96.859h-4.6a1.034,1.034,0,0,1-1.011-.91l-.455-2.932a1.02,1.02,0,0,1-.809-.96V830.9h0V781.211H1.011A1.014,1.014,0,0,1,0,780.2v-3.589A1.014,1.014,0,0,1,1.011,775.6H58.989A1.014,1.014,0,0,1,60,776.611V780.2a1.014,1.014,0,0,1-1.011,1.011ZM26.891,844.143a1.011,1.011,0,0,1,0-2.022h6.116a1.011,1.011,0,0,1,0,2.022Z" transform="translate(0 -775.6)"/>
</svg>
