<svg xmlns="http://www.w3.org/2000/svg" viewBox="0 0 61.458 44.329">
  <defs>
    <style>
      .cls-1 {
        fill: #333;
      }
    </style>
  </defs>
  <path id="Path_12673" data-name="Path 12673" class="cls-1" d="M1263.256,1015.626h-57.094v1.4h57.094Zm-32.1,8.995a1.077,1.077,0,1,1,0-2.154h5.548a1.077,1.077,0,1,1,0,2.154Zm-21.872,3.339h26.447v-8.833h-26.447Zm.539,27.685h1.077l.485-25.585h-2.047Zm50.792,2.154h-3.178a1.109,1.109,0,0,1-1.077-1.023l-.485-26.662h-42.444l-.485,26.554v.054a1.08,1.08,0,0,1-1.077,1.077h-3.178a1.109,1.109,0,0,1-1.077-1.023l-.539-27.578v-.215h0v-9.8h-2.1a1.081,1.081,0,0,1-1.077-1.077v-3.555a1.081,1.081,0,0,1,1.077-1.077h59.3a1.08,1.08,0,0,1,1.077,1.077v3.555a1.08,1.08,0,0,1-1.077,1.077h-2.1v10.072l-.539,27.47v.054A.989.989,0,0,1,1260.617,1057.8Zm-2.154-2.154h1.077l.485-25.585h-2.047Zm-22.73-27.685h24.346v-8.833h-24.346Z" transform="translate(-1203.899 -1013.471)"/>
</svg>
