<svg xmlns="http://www.w3.org/2000/svg" viewBox="0 0 61.458 76">
  <defs>
    <style>
      .cls-1 {
        fill: #333;
      }
    </style>
  </defs>
  <path id="Path_12630" data-name="Path 12630" class="cls-1" d="M1246.182,1038.14h-22.945v2.693h22.946v-2.693Zm-.862,19.66h-3.178a1.106,1.106,0,0,1-1.077-1.023l-.485-13.789h-11.85l-.485,13.681v.054a1.08,1.08,0,0,1-1.077,1.077h-3.178a1.107,1.107,0,0,1-1.077-1.023l-.485-13.789h-.323a1.08,1.08,0,0,1-1.077-1.077v-4.848a1.081,1.081,0,0,1,1.077-1.077h25.046a1.081,1.081,0,0,1,1.077,1.077v4.848a1.08,1.08,0,0,1-1.077,1.077h-.323l-.485,13.681v.054A1,1,0,0,1,1245.32,1057.8Zm-2.154-2.154h1.131l.431-12.658h-2.047Zm20.091-40.02h-57.094v1.4h57.094Zm-22.73-24.831a1.046,1.046,0,0,1,1.185,1.724l-14.6,10.4a1.046,1.046,0,1,1-1.185-1.724Zm1.777,6.086a1.046,1.046,0,0,1,1.185,1.724l-14.651,10.4a1.046,1.046,0,0,1-1.185-1.724Zm-1.562,8.349a1.046,1.046,0,1,1,1.185,1.724l-6.733,4.794a1.046,1.046,0,0,1-1.185-1.724Zm-3.878-19.337a1.046,1.046,0,0,1,1.185,1.724L1227.6,995.1a1.046,1.046,0,1,1-1.185-1.724Zm-14.7,27.631h25.1V984.008h-25.1Zm-3.447,11.1a1.077,1.077,0,0,1,0-2.154h5.548a1.077,1.077,0,1,1,0,2.154Zm26.447,0a1.077,1.077,0,1,1,0-2.154h5.548a1.077,1.077,0,1,1,0,2.154Zm-35.872,3.339h24.346v-8.833h-24.346Zm.539,27.685h1.077l.485-25.585h-2.047Zm50.792,2.154h-3.178a1.109,1.109,0,0,1-1.077-1.023l-.485-26.662h-42.444l-.485,26.554v.054a1.08,1.08,0,0,1-1.077,1.077h-3.178a1.109,1.109,0,0,1-1.077-1.023l-.539-27.578v-.215h0v-9.8h-2.1a1.081,1.081,0,0,1-1.077-1.077v-3.555a1.081,1.081,0,0,1,1.077-1.077h14.974V982.878a1.08,1.08,0,0,1,1.077-1.077h27.2a1.08,1.08,0,0,1,1.077,1.077v30.594h14.974a1.08,1.08,0,0,1,1.077,1.077v3.555a1.08,1.08,0,0,1-1.077,1.077h-2.1v10.072l-.539,27.47v.054A.989.989,0,0,1,1260.617,1057.8Zm-2.154-2.154h1.077l.485-25.585h-2.047Zm-22.73-27.685h24.346v-8.833h-24.346Zm-10.665,27.685h1.131l.431-12.658h-2.047Z" transform="translate(-1203.899 -981.8)"/>
</svg>
