<svg xmlns="http://www.w3.org/2000/svg" viewBox="0 0 140.322 105.75">
  <defs>
    <style>
      .cls-1 {
        opacity: 0.572;
      }

      .cls-2, .cls-3, .cls-4, .cls-6, .cls-7 {
        fill: none;
        stroke: #333;
        stroke-miterlimit: 10;
        stroke-width: 1.5px;
      }

      .cls-2, .cls-7 {
        stroke-linecap: round;
      }

      .cls-2, .cls-3 {
        stroke-linejoin: round;
      }

      .cls-5 {
        fill: #333;
      }

      .cls-6 {
        stroke-linecap: square;
      }

      .cls-8 {
        fill: #c3cdd8;
        opacity: 0.06;
      }
    </style>
  </defs>
  <g id="Group_1030" data-name="Group 1030" transform="translate(-20218 -15812.25)">
    <g id="Group_388" data-name="Group 388" class="cls-1" transform="translate(15596.2 12497)">
      <rect id="Rectangle_459" data-name="Rectangle 459" class="cls-2" width="40.749" height="50.365" transform="translate(4652.611 3355.576)"/>
      <rect id="Rectangle_460" data-name="Rectangle 460" class="cls-2" width="40.749" height="6.743" transform="translate(4652.611 3399.257)"/>
      <rect id="Rectangle_461" data-name="Rectangle 461" class="cls-3" width="40.749" height="8.208" transform="translate(4652.611 3355.576)"/>
      <path id="Path_2725" data-name="Path 2725" class="cls-3" d="M302.6,367.6v-2.7h31.427v2.7" transform="translate(4354.584 3002.93)"/>
      <path id="Path_2726" data-name="Path 2726" class="cls-3" d="M334.027,375.6v20.58H302.6V375.6" transform="translate(4354.584 2998.504)"/>
      <path id="Path_2727" data-name="Path 2727" class="cls-2" d="M302.6,367.6v-2.7h31.427v2.7" transform="translate(4354.584 3002.93)"/>
      <path id="Path_2728" data-name="Path 2728" class="cls-2" d="M334.027,375.6v20.58H302.6V375.6" transform="translate(4354.584 2998.504)"/>
      <line id="Line_76" data-name="Line 76" class="cls-4" x2="31.485" transform="translate(4657.125 3387.531)"/>
      <path id="Path_2729" data-name="Path 2729" class="cls-5" d="M303.528,350.214a1.114,1.114,0,1,1-1.114-1.114A1.152,1.152,0,0,1,303.528,350.214Z" transform="translate(4355.122 3009.467)"/>
      <path id="Path_2730" data-name="Path 2730" class="cls-5" d="M310.128,350.214a1.114,1.114,0,1,1-1.114-1.114A1.2,1.2,0,0,1,310.128,350.214Z" transform="translate(4352.392 3009.467)"/>
      <path id="Path_2731" data-name="Path 2731" class="cls-5" d="M348.028,350.214a1.113,1.113,0,0,1-1.114,1.114,1.078,1.078,0,0,1-1.114-1.114,1.114,1.114,0,1,1,2.228,0Z" transform="translate(4336.713 3009.467)"/>
      <path id="Path_2732" data-name="Path 2732" class="cls-5" d="M354.628,350.214a1.113,1.113,0,0,1-1.114,1.114,1.078,1.078,0,0,1-1.114-1.114,1.114,1.114,0,1,1,2.228,0Z" transform="translate(4333.983 3009.467)"/>
      <line id="Line_77" data-name="Line 77" class="cls-4" x2="11.844" transform="translate(4666.976 3359.681)"/>
      <line id="Line_78" data-name="Line 78" class="cls-6" y2="2.756" transform="translate(4662.52 3352.821)"/>
      <path id="Path_2733" data-name="Path 2733" class="cls-2" d="M305.2,339.3h-2.7v2.756" transform="translate(4354.625 3013.521)"/>
      <path id="Path_2734" data-name="Path 2734" class="cls-2" d="M316.2,339.3h2.7v2.756" transform="translate(4348.958 3013.521)"/>
      <line id="Line_79" data-name="Line 79" class="cls-6" y2="2.756" transform="translate(4683.217 3352.821)"/>
      <path id="Path_2735" data-name="Path 2735" class="cls-2" d="M340.6,339.3h-2.7v2.756" transform="translate(4339.981 3013.521)"/>
      <path id="Path_2736" data-name="Path 2736" class="cls-2" d="M351.6,339.3h2.7v2.756" transform="translate(4334.313 3013.521)"/>
      <path id="Path_2737" data-name="Path 2737" class="cls-3" d="M316.2,392.781a7.681,7.681,0,1,1,15.362,0Z" transform="translate(4348.958 2994.574)"/>
      <rect id="Rectangle_462" data-name="Rectangle 462" class="cls-3" width="40.749" height="3.518" transform="translate(4652.611 3370.528)"/>
      <path id="Path_2738" data-name="Path 2738" class="cls-2" d="M326.813,286.5H303.595L294.8,296.585h40.749Z" transform="translate(4357.811 3035.363)"/>
      <rect id="Rectangle_463" data-name="Rectangle 463" class="cls-2" width="23.16" height="5.922" transform="translate(4661.405 3316)"/>
      <rect id="Rectangle_464" data-name="Rectangle 464" class="cls-3" width="29.433" height="4.104" transform="translate(4693.36 3355.576)"/>
      <rect id="Rectangle_465" data-name="Rectangle 465" class="cls-3" width="29.433" height="46.261" transform="translate(4693.36 3359.681)"/>
      <rect id="Rectangle_466" data-name="Rectangle 466" class="cls-3" width="29.433" height="6.743" transform="translate(4693.36 3399.257)"/>
      <rect id="Rectangle_467" data-name="Rectangle 467" class="cls-3" width="29.433" height="8.091" transform="translate(4693.36 3359.681)"/>
      <rect id="Rectangle_468" data-name="Rectangle 468" class="cls-3" width="14.717" height="31.427" transform="translate(4708.136 3367.83)"/>
      <rect id="Rectangle_469" data-name="Rectangle 469" class="cls-2" width="33.42" height="90" transform="translate(4722.852 3316)"/>
      <rect id="Rectangle_470" data-name="Rectangle 470" class="cls-2" width="33.42" height="38.169" transform="translate(4722.852 3367.83)"/>
      <line id="Line_80" data-name="Line 80" class="cls-2" y2="11.081" transform="translate(4725.842 3343.146)"/>
      <line id="Line_81" data-name="Line 81" class="cls-2" y2="8.267" transform="translate(4725.842 3375.277)"/>
      <line id="Line_82" data-name="Line 82" class="cls-2" x2="10.847" transform="translate(4702.683 3363.726)"/>
      <line id="Line_83" data-name="Line 83" class="cls-2" y2="10.847" transform="translate(4704.617 3372.345)"/>
      <line id="Line_84" data-name="Line 84" class="cls-2" y2="10.847" transform="translate(4712.24 3372.345)"/>
      <line id="Line_85" data-name="Line 85" class="cls-2" x2="20.58" transform="translate(4697.816 3327.433)"/>
      <path id="Path_2739" data-name="Path 2739" class="cls-2" d="M381.932,317.724c0,.821-1.407,3.87-3.166,3.87s-3.166-3.049-3.166-3.87,1.407-1.524,3.166-1.524S381.932,316.9,381.932,317.724Z" transform="translate(4324.385 3023.077)"/>
      <line id="Line_86" data-name="Line 86" class="cls-2" y1="11.844" transform="translate(4703.152 3327.433)"/>
      <line id="Line_87" data-name="Line 87" class="cls-2" y1="11.844" transform="translate(4713.354 3327.433)"/>
      <path id="Path_2740" data-name="Path 2740" class="cls-2" d="M393.1,321.594h6.274l-1.935-5.394h-2.169Z" transform="translate(4317.146 3023.077)"/>
      <line id="Line_88" data-name="Line 88" class="cls-7" x2="112.573" transform="translate(4648.8 3405.941)"/>
    </g>
    <circle id="Ellipse_1004" data-name="Ellipse 1004" class="cls-8" cx="49" cy="49" r="49" transform="translate(20218 15820)"/>
  </g>
</svg>
