<svg id="Group_1271" data-name="Group 1271" xmlns="http://www.w3.org/2000/svg" viewBox="0 0 85 82.875">
  <defs>
    <style>
      .cls-1 {
        fill: #333;
      }
    </style>
  </defs>
  <path id="Path_13059" data-name="Path 13059" class="cls-1" d="M75.792,4.958h-.708A6.287,6.287,0,0,0,68.885,0a6.437,6.437,0,0,0-6.2,4.958H57.021A6.287,6.287,0,0,0,50.823,0a6.437,6.437,0,0,0-6.2,4.958H38.958A6.146,6.146,0,0,0,32.76,0a6.437,6.437,0,0,0-6.2,4.958H22.135A6.094,6.094,0,0,0,16.115,0a6.287,6.287,0,0,0-6.2,4.958H9.208A9.258,9.258,0,0,0,0,14.167v59.5a9.145,9.145,0,0,0,9.208,9.208H75.792A9.145,9.145,0,0,0,85,73.667v-59.5A9.258,9.258,0,0,0,75.792,4.958Zm-6.906-2.3a3.852,3.852,0,0,1,3.542,2.479H65.521A3.263,3.263,0,0,1,68.885,2.656Zm-18.063,0a3.851,3.851,0,0,1,3.542,2.479H47.458A3.4,3.4,0,0,1,50.823,2.656Zm-18.062,0A3.852,3.852,0,0,1,36.3,5.135H29.4A3.4,3.4,0,0,1,32.76,2.656Zm-16.646,0a3.852,3.852,0,0,1,3.542,2.479H12.573A3.612,3.612,0,0,1,16.115,2.656ZM9.208,7.615h.708a6.287,6.287,0,0,0,6.2,4.958,1.24,1.24,0,0,0,0-2.479,3.852,3.852,0,0,1-3.542-2.479h13.99a6.287,6.287,0,0,0,6.2,4.958,1.24,1.24,0,1,0,0-2.479,3.852,3.852,0,0,1-3.542-2.479H44.625a6.287,6.287,0,0,0,6.2,4.958,1.24,1.24,0,1,0,0-2.479,3.851,3.851,0,0,1-3.542-2.479H62.688a6.287,6.287,0,0,0,6.2,4.958,1.24,1.24,0,1,0,0-2.479,3.852,3.852,0,0,1-3.542-2.479H75.792a6.537,6.537,0,0,1,6.552,6.552v2.3H2.656v-2.3A6.537,6.537,0,0,1,9.208,7.615Zm66.583,72.6H9.208a6.537,6.537,0,0,1-6.552-6.552V19.125H82.521V73.667A6.81,6.81,0,0,1,75.792,80.219Z"/>
  <path id="Path_13060" data-name="Path 13060" class="cls-1" d="M15.308,16.6H11.235A5.139,5.139,0,0,0,6.1,21.735v4.073a5.139,5.139,0,0,0,5.135,5.135h4.073a5.139,5.139,0,0,0,5.135-5.135V21.735A5.139,5.139,0,0,0,15.308,16.6Zm2.656,9.208a2.723,2.723,0,0,1-2.656,2.656H11.235a2.723,2.723,0,0,1-2.656-2.656V21.735a2.723,2.723,0,0,1,2.656-2.656h4.073a2.723,2.723,0,0,1,2.656,2.656Z" transform="translate(4.702 12.796)"/>
  <path id="Path_13061" data-name="Path 13061" class="cls-1" d="M38.935,30.944h4.073a5.139,5.139,0,0,0,5.135-5.135V21.735A5.139,5.139,0,0,0,43.008,16.6H38.935A5.139,5.139,0,0,0,33.8,21.735v4.073A5.139,5.139,0,0,0,38.935,30.944Zm-2.656-9.208a2.723,2.723,0,0,1,2.656-2.656h4.073a2.723,2.723,0,0,1,2.656,2.656v4.073a2.723,2.723,0,0,1-2.656,2.656H38.935a2.723,2.723,0,0,1-2.656-2.656Z" transform="translate(26.054 12.796)"/>
  <path id="Path_13062" data-name="Path 13062" class="cls-1" d="M29.108,16.6H25.035A5.139,5.139,0,0,0,19.9,21.735v4.073a5.139,5.139,0,0,0,5.135,5.135h4.073a5.139,5.139,0,0,0,5.135-5.135V21.735A5.029,5.029,0,0,0,29.108,16.6Zm2.656,9.208a2.723,2.723,0,0,1-2.656,2.656H25.035a2.723,2.723,0,0,1-2.656-2.656V21.735a2.723,2.723,0,0,1,2.656-2.656h4.073a2.723,2.723,0,0,1,2.656,2.656Z" transform="translate(15.34 12.796)"/>
  <path id="Path_13063" data-name="Path 13063" class="cls-1" d="M15.308,30.9H11.235A5.139,5.139,0,0,0,6.1,36.035v4.073a5.139,5.139,0,0,0,5.135,5.135h4.073a5.139,5.139,0,0,0,5.135-5.135V36.035A5.139,5.139,0,0,0,15.308,30.9Zm2.656,9.208a2.723,2.723,0,0,1-2.656,2.656H11.235a2.723,2.723,0,0,1-2.656-2.656V36.035a2.723,2.723,0,0,1,2.656-2.656h4.073a2.723,2.723,0,0,1,2.656,2.656Z" transform="translate(4.702 23.819)"/>
  <path id="Path_13064" data-name="Path 13064" class="cls-1" d="M29.108,30.9H25.035A5.139,5.139,0,0,0,19.9,36.035v4.073a5.139,5.139,0,0,0,5.135,5.135h4.073a5.139,5.139,0,0,0,5.135-5.135V36.035A5.029,5.029,0,0,0,29.108,30.9Zm2.656,9.208a2.723,2.723,0,0,1-2.656,2.656H25.035a2.723,2.723,0,0,1-2.656-2.656V36.035a2.723,2.723,0,0,1,2.656-2.656h4.073a2.723,2.723,0,0,1,2.656,2.656Z" transform="translate(15.34 23.819)"/>
  <path id="Path_13065" data-name="Path 13065" class="cls-1" d="M53.389,35.438l-6.375-.885L44.18,28.708A1.491,1.491,0,0,0,42.941,28a1.792,1.792,0,0,0-1.24.708l-2.833,5.844-6.375.885a1.122,1.122,0,0,0-1.063.885,1.016,1.016,0,0,0,.354,1.24l4.6,4.6-1.062,6.375a1.608,1.608,0,0,0,.531,1.24,1.337,1.337,0,0,0,1.417.177l5.844-3.01,5.844,3.01a.651.651,0,0,0,.531.177c.354,0,.531,0,.708-.177a1.608,1.608,0,0,0,.531-1.24l-1.417-6.552,4.6-4.6a1.174,1.174,0,0,0,.354-1.24A.949.949,0,0,0,53.389,35.438ZM47.014,40.75a1.3,1.3,0,0,0-.354,1.063l.708,4.6-4.073-2.125a.885.885,0,0,0-1.062,0l-4.073,2.125.708-4.6c0-.354,0-.885-.354-1.063l-3.365-3.187,4.6-.708a1.177,1.177,0,0,0,.885-.708l1.948-4.073,1.948,4.073a1.177,1.177,0,0,0,.885.708l4.6.708Z" transform="translate(24.174 21.583)"/>
</svg>
