<svg id="圖層_1" data-name="圖層 1" xmlns="http://www.w3.org/2000/svg" width="800" height="50" viewBox="0 0 800 50">
  <defs>
    <style>
      .cls-1 {
        fill: #999;
      }

      .cls-2 {
        fill: #007aff;
      }
    </style>
  </defs>
  <title>icon-admin</title>
  <path class="cls-1" d="M44.25,12.8H30.38L25.44,6.22H8.29A2.29,2.29,0,0,0,6,8.51v7a2.73,2.73,0,0,1,0-.49,2.75,2.75,0,0,0,0,.49v25.5A2.75,2.75,0,0,0,8.75,43.8h35.5A2.75,2.75,0,0,0,47,41.05V15.55A2.75,2.75,0,0,0,44.25,12.8Zm-36-5H24.64l3.74,5H8.75a2.73,2.73,0,0,0-1.15.26V8.51A.69.69,0,0,1,8.29,7.82ZM7,13.41l-.14.12Zm-.32.29-.16.19Zm-.54.88a2.72,2.72,0,0,0-.1.33A2.7,2.7,0,0,1,6.19,14.58ZM6.45,14a2.74,2.74,0,0,0-.21.38A2.73,2.73,0,0,1,6.45,14Zm39,27a1.15,1.15,0,0,1-1.15,1.15H8.75A1.15,1.15,0,0,1,7.6,41.05V15.55A1.15,1.15,0,0,1,8.75,14.4h35.5a1.15,1.15,0,0,1,1.15,1.15Z"/>
  <path d="M94.25,12.8H80.38L75.44,6.22H58.29A2.29,2.29,0,0,0,56,8.51v7a2.73,2.73,0,0,1,0-.49,2.75,2.75,0,0,0,0,.49v25.5a2.75,2.75,0,0,0,2.75,2.75h35.5A2.75,2.75,0,0,0,97,41.05V15.55A2.75,2.75,0,0,0,94.25,12.8Zm-36-5H74.64l3.74,5H58.75a2.73,2.73,0,0,0-1.15.26V8.51A.69.69,0,0,1,58.29,7.82ZM57,13.41l-.14.12Zm-.32.29-.16.19Zm-.54.88a2.72,2.72,0,0,0-.1.33A2.7,2.7,0,0,1,56.19,14.58Zm.26-.53a2.74,2.74,0,0,0-.21.38A2.73,2.73,0,0,1,56.45,14Zm39,27a1.15,1.15,0,0,1-1.15,1.15H58.75a1.15,1.15,0,0,1-1.15-1.15V15.55a1.15,1.15,0,0,1,1.15-1.15h35.5a1.15,1.15,0,0,1,1.15,1.15Z"/>
  <path class="cls-1" d="M109.4,44.56l33-18a1.77,1.77,0,0,0,0-3.32l-33-17.8a2,2,0,0,0-2-.07,2,2,0,0,0-.91,1.82V42.82a1.88,1.88,0,0,0,2.94,1.75ZM108.06,7.19c0-.28.08-.42.13-.45s.21,0,.46.11l33,17.8a1,1,0,0,1,.31.24s-.08.14-.31.26l-4.83,2.64v0l-28.75-16.3Zm0,6.12,27.11,15.37L130.84,31,108.06,18.11Zm.13,30c-.05,0-.12-.18-.12-.45V20l21.13,12L108.63,43.16c-.24.13-.4.14-.45.11Zm0-.07"/>
  <path d="M159.4,44.56l33-18a1.77,1.77,0,0,0,0-3.32l-33-17.8a2,2,0,0,0-2-.07,2,2,0,0,0-.91,1.82V42.82a1.88,1.88,0,0,0,2.94,1.75ZM158.06,7.19c0-.28.08-.42.13-.45s.21,0,.46.11l33,17.8a1,1,0,0,1,.31.24s-.08.14-.31.26l-4.83,2.64v0l-28.75-16.3Zm0,6.12,27.11,15.37L180.84,31,158.06,18.11Zm.13,30c-.05,0-.12-.18-.12-.45V20l21.13,12L158.63,43.16c-.24.13-.4.14-.45.11Zm0-.07"/>
  <path class="cls-1" d="M244.82,25.81a.81.81,0,1,0,0-1.62h-1.95a17.89,17.89,0,0,0-.39-3l1.88-.5a.82.82,0,0,0,.57-1,.8.8,0,0,0-1-.57l-1.88.5a17.89,17.89,0,0,0-1.17-2.83l1.69-1a.81.81,0,0,0-.2-1.48.79.79,0,0,0-.61.08l-1.68,1a18,18,0,0,0-1.86-2.43l1.37-1.38a.81.81,0,0,0-1.14-1.14l-1.37,1.37a17.72,17.72,0,0,0-2.43-1.86l1-1.69a.8.8,0,0,0,.08-.61.81.81,0,0,0-1.48-.2l-1,1.69A18,18,0,0,0,230.4,8l.51-1.89a.81.81,0,0,0-1.56-.42l-.5,1.89a17.83,17.83,0,0,0-3-.4v-2a.81.81,0,0,0-1.62,0V7.13a17.8,17.8,0,0,0-3,.39l-.5-1.88a.81.81,0,1,0-1.56.42l.5,1.88a17.67,17.67,0,0,0-2.83,1.17l-1-1.69a.81.81,0,0,0-1.48.2.8.8,0,0,0,.08.61l1,1.69a17.56,17.56,0,0,0-2.43,1.86l-1.38-1.38a.81.81,0,0,0-1.14,1.14l1.37,1.37a17.66,17.66,0,0,0-1.86,2.43l-1.69-1a.79.79,0,0,0-.61-.08.81.81,0,0,0-.2,1.48l1.69,1A18,18,0,0,0,208,19.6l-1.89-.51a.79.79,0,0,0-.61.08.8.8,0,0,0-.38.49.81.81,0,0,0,.57,1l1.89.51a17.77,17.77,0,0,0-.4,3h-2a.81.81,0,1,0,0,1.62h1.95a17.91,17.91,0,0,0,.39,3l-1.88.5a.81.81,0,0,0,.21,1.59l.21,0,1.88-.5a17.83,17.83,0,0,0,1.17,2.83l-1.69,1a.81.81,0,0,0,.41,1.51.78.78,0,0,0,.4-.11l1.69-1a17.89,17.89,0,0,0,1.86,2.43l-1.38,1.38a.81.81,0,0,0,0,1.14.83.83,0,0,0,1.14,0l1.38-1.38a17.86,17.86,0,0,0,2.43,1.86l-1,1.69a.8.8,0,0,0-.08.61.81.81,0,0,0,.38.49.83.83,0,0,0,1.1-.3l1-1.69A18.34,18.34,0,0,0,219.6,42l-.51,1.89a.79.79,0,0,0,.08.61.81.81,0,0,0,.5.38l.2,0a.81.81,0,0,0,.78-.6l.51-1.89a18.26,18.26,0,0,0,3,.4v2a.81.81,0,1,0,1.62,0v-2a17.5,17.5,0,0,0,3-.4l.5,1.89a.81.81,0,0,0,.78.6l.21,0a.81.81,0,0,0,.57-1L230.4,42a17.77,17.77,0,0,0,2.83-1.17l1,1.69a.83.83,0,0,0,1.1.29.81.81,0,0,0,.3-1.11l-1-1.69a17.8,17.8,0,0,0,2.43-1.86l1.37,1.38a.83.83,0,0,0,1.15,0,.81.81,0,0,0,0-1.14l-1.37-1.37a18,18,0,0,0,1.86-2.43l1.69,1a.78.78,0,0,0,.41.11.8.8,0,0,0,.7-.4.81.81,0,0,0-.29-1.11l-1.69-1A18,18,0,0,0,242,30.4l1.89.51a.76.76,0,0,0,.21,0,.81.81,0,0,0,.21-1.59l-1.89-.51a17.82,17.82,0,0,0,.4-3ZM225,19a6.07,6.07,0,0,1,1.57.21A6,6,0,1,1,225,19Zm-8.13-8.07a16.11,16.11,0,0,1,7.33-2.15v8.65a7.61,7.61,0,0,0-3,1A7.7,7.7,0,0,0,218,28.1l-7.5,4.33A16.23,16.23,0,0,1,216.86,10.9ZM233.14,39.1a16.23,16.23,0,0,1-21.81-5.27l7.51-4.33a7.62,7.62,0,0,0,10,2.13,7.55,7.55,0,0,0,2.35-2.13l7.5,4.33A16.31,16.31,0,0,1,233.14,39.1Zm6.33-6.67L232,28.09a7.62,7.62,0,0,0-6.17-10.69V8.76a16.25,16.25,0,0,1,13.66,23.67Zm-18.13-5.31a4.2,4.2,0,0,0,2.57,2,4.36,4.36,0,0,0,1.1.14,4.23,4.23,0,1,0-3.67-2.11Zm1.14-2.79a2.59,2.59,0,0,1,1.21-1.58,2.61,2.61,0,0,1,2-.26,2.61,2.61,0,0,1,1.84,3.19h0a2.61,2.61,0,1,1-5-1.35Z"/>
  <path class="cls-2" d="M294.82,25.81a.81.81,0,1,0,0-1.62h-1.95a17.89,17.89,0,0,0-.39-3l1.88-.5a.82.82,0,0,0,.57-1,.8.8,0,0,0-1-.57l-1.88.5a17.89,17.89,0,0,0-1.17-2.83l1.69-1a.81.81,0,0,0-.2-1.48.79.79,0,0,0-.61.08l-1.68,1a18,18,0,0,0-1.86-2.43l1.37-1.38a.81.81,0,0,0-1.14-1.14l-1.37,1.37a17.72,17.72,0,0,0-2.43-1.86l1-1.69a.8.8,0,0,0,.08-.61.81.81,0,0,0-1.48-.2l-1,1.69A18,18,0,0,0,280.4,8l.51-1.89a.81.81,0,0,0-1.56-.42l-.5,1.89a17.83,17.83,0,0,0-3-.4v-2a.81.81,0,0,0-1.62,0V7.13a17.8,17.8,0,0,0-3,.39l-.5-1.88a.81.81,0,1,0-1.56.42l.5,1.88a17.67,17.67,0,0,0-2.83,1.17l-1-1.69a.81.81,0,0,0-1.48.2.8.8,0,0,0,.08.61l1,1.69a17.56,17.56,0,0,0-2.43,1.86l-1.38-1.38a.81.81,0,0,0-1.14,1.14l1.37,1.37a17.66,17.66,0,0,0-1.86,2.43l-1.69-1a.79.79,0,0,0-.61-.08.81.81,0,0,0-.2,1.48l1.69,1A18,18,0,0,0,258,19.6l-1.89-.51a.79.79,0,0,0-.61.08.8.8,0,0,0-.38.49.81.81,0,0,0,.57,1l1.89.51a17.77,17.77,0,0,0-.4,3h-2a.81.81,0,1,0,0,1.62h1.95a17.91,17.91,0,0,0,.39,3l-1.88.5a.81.81,0,0,0,.21,1.59l.21,0,1.88-.5a17.83,17.83,0,0,0,1.17,2.83l-1.69,1a.81.81,0,0,0,.41,1.51.78.78,0,0,0,.4-.11l1.69-1a17.89,17.89,0,0,0,1.86,2.43l-1.38,1.38a.81.81,0,0,0,0,1.14.83.83,0,0,0,1.14,0l1.38-1.38a17.86,17.86,0,0,0,2.43,1.86l-1,1.69a.8.8,0,0,0-.08.61.81.81,0,0,0,.38.49.83.83,0,0,0,1.1-.3l1-1.69A18.34,18.34,0,0,0,269.6,42l-.51,1.89a.79.79,0,0,0,.08.61.81.81,0,0,0,.5.38l.2,0a.81.81,0,0,0,.78-.6l.51-1.89a18.26,18.26,0,0,0,3,.4v2a.81.81,0,1,0,1.62,0v-2a17.5,17.5,0,0,0,3-.4l.5,1.89a.81.81,0,0,0,.78.6l.21,0a.81.81,0,0,0,.57-1L280.4,42a17.77,17.77,0,0,0,2.83-1.17l1,1.69a.83.83,0,0,0,1.1.29.81.81,0,0,0,.3-1.11l-1-1.69a17.8,17.8,0,0,0,2.43-1.86l1.37,1.38a.83.83,0,0,0,1.15,0,.81.81,0,0,0,0-1.14l-1.37-1.37a18,18,0,0,0,1.86-2.43l1.69,1a.78.78,0,0,0,.41.11.8.8,0,0,0,.7-.4.81.81,0,0,0-.29-1.11l-1.69-1A18,18,0,0,0,292,30.4l1.89.51a.76.76,0,0,0,.21,0,.81.81,0,0,0,.21-1.59l-1.89-.51a17.82,17.82,0,0,0,.4-3ZM275,19a6.07,6.07,0,0,1,1.57.21A6,6,0,1,1,275,19Zm-8.13-8.07a16.11,16.11,0,0,1,7.33-2.15v8.65a7.61,7.61,0,0,0-3,1A7.7,7.7,0,0,0,268,28.1l-7.5,4.33A16.23,16.23,0,0,1,266.86,10.9ZM283.14,39.1a16.23,16.23,0,0,1-21.81-5.27l7.51-4.33a7.62,7.62,0,0,0,10,2.13,7.55,7.55,0,0,0,2.35-2.13l7.5,4.33A16.31,16.31,0,0,1,283.14,39.1Zm6.33-6.67L282,28.09a7.62,7.62,0,0,0-6.17-10.69V8.76a16.25,16.25,0,0,1,13.66,23.67Zm-18.13-5.31a4.2,4.2,0,0,0,2.57,2,4.36,4.36,0,0,0,1.1.14,4.23,4.23,0,1,0-3.67-2.11Zm1.14-2.79a2.59,2.59,0,0,1,1.21-1.58,2.61,2.61,0,0,1,2-.26,2.61,2.61,0,0,1,1.84,3.19h0a2.61,2.61,0,1,1-5-1.35Z"/>
  <g>
    <path class="cls-1" d="M325,5a20,20,0,1,0,20,20A20,20,0,0,0,325,5Zm11.47,5.51a18.62,18.62,0,0,1,2.72,2.65,2.94,2.94,0,0,0-1.21,0,2.55,2.55,0,0,0-1.69,1.42.46.46,0,0,1-.88-.17,8.71,8.71,0,0,1,1.06-3.92Zm-24.2,1.1A18.54,18.54,0,0,1,317.78,8a21.91,21.91,0,0,1,4.92,4.61,1.17,1.17,0,0,1-.45,1.76c-1.82.83-4.23,2.12-5.38,3.55a1.08,1.08,0,0,1-1.1.38,2.88,2.88,0,0,0-3.48,1.31c-.89,1.56.35,3.08,1.45,4.42l.37.46a7,7,0,0,1-2.62-2.64c-1-1.85-1.7-5.12.79-10.21ZM306.52,25a18.37,18.37,0,0,1,2.86-9.87,10.26,10.26,0,0,0,.77,7.43,8.88,8.88,0,0,0,4.43,3.85,1.44,1.44,0,0,1,.83,1l.06.28a9.72,9.72,0,0,1,.09,3,5.31,5.31,0,0,0,2.25,5l1.51,1.05a15.79,15.79,0,0,0,.56,6A18.52,18.52,0,0,1,306.52,25ZM343,28.09a2.84,2.84,0,0,0-1-2,2.8,2.8,0,0,0-2.19-.59h-.07A2.21,2.21,0,0,1,338,25a2.25,2.25,0,0,1-.88-1.52,10.92,10.92,0,0,1-.09-1.91.76.76,0,0,0-1.52-.07,12.37,12.37,0,0,0,.1,2.17,3.76,3.76,0,0,0,1.47,2.53,3.71,3.71,0,0,0,2.8.72H340a1.26,1.26,0,0,1,1,.27,1.32,1.32,0,0,1,.49.95,8.49,8.49,0,0,0,.83,3.38,18.48,18.48,0,0,1-19.42,11.8l.91-.94a.76.76,0,0,0-1.09-1.05l-1.23,1.26c-1-2.44-.58-6.14-.57-6.18a.76.76,0,0,0-.32-.72l-1.88-1.31a3.8,3.8,0,0,1-1.61-3.55,11.6,11.6,0,0,0,0-3.11,23.72,23.72,0,0,1,3.53-.65,2.24,2.24,0,0,1,1.8.61,30.26,30.26,0,0,0,5.06,3.66,2.7,2.7,0,0,1,.69,4c-.67.82-1.5,1.77-2.45,2.81a.76.76,0,0,0,1.12,1c1-1.06,1.81-2,2.5-2.87a4.22,4.22,0,0,0-1.08-6.28,29.3,29.3,0,0,1-4.8-3.46,3.76,3.76,0,0,0-3-1,25.47,25.47,0,0,0-3.57.64,8.52,8.52,0,0,0-1.92-3.19c-1-1.24-1.65-2.1-1.3-2.7.22-.39.65-.88,1.79-.59a2.6,2.6,0,0,0,2.65-.89,14.41,14.41,0,0,1,4.83-3.12,2.69,2.69,0,0,0,1-4,22.5,22.5,0,0,0-4.41-4.34,18.47,18.47,0,0,1,15.73,2.26,10.39,10.39,0,0,0-1.34,4.86,2,2,0,0,0,1.77,1.9h.2a2,2,0,0,0,1.78-1.1,1,1,0,0,1,.69-.62c.34-.08,1.11-.06,2.55.94a7.61,7.61,0,0,1-1.06-.05,2.28,2.28,0,0,0-1.62.41,5.74,5.74,0,0,0-.86.76.76.76,0,1,0,1.11,1,4.23,4.23,0,0,1,.63-.56.77.77,0,0,1,.55-.13,9.11,9.11,0,0,0,2.06,0A18.47,18.47,0,0,1,343.05,29q-.06-.42-.09-.88Zm0,0"/>
    <path class="cls-1" d="M325.46,40a.72.72,0,0,0-.07-.13l-.09-.12-.12-.1-.13-.07-.14,0a.74.74,0,0,0-.3,0l-.14,0-.13.07-.12.1-.1.12a.78.78,0,0,0-.07.13.81.81,0,0,0,0,.14.76.76,0,0,0,0,.15.74.74,0,0,0,0,.15.8.8,0,0,0,0,.14l.07.13.1.12.12.09.13.07.14,0h.3l.14,0,.13-.07.12-.09.09-.12a.69.69,0,0,0,.07-.13.75.75,0,0,0,.06-.29.76.76,0,0,0,0-.15.75.75,0,0,0,0-.14Zm0,0"/>
    <path class="cls-1" d="M328.62,8.38c-.12-.11-1.31-1.09-5.1-1.41a.84.84,0,0,0-.85.44c-.28.54.07.95.59,1.56a6.84,6.84,0,0,1,1.77,3.1.76.76,0,0,0,.56.63l.2,0a.76.76,0,0,0,.6-.3l2.33-3a.76.76,0,0,0-.09-1Zm-2.55,2A9.12,9.12,0,0,0,325,8.68a10.06,10.06,0,0,1,2,.51Zm0,0"/>
    <path class="cls-1" d="M337.1,18.71l-.13-.07-.14,0a.76.76,0,0,0-.3,0l-.14,0-.13.07-.12.09-.09.12A.81.81,0,0,0,336,19a.73.73,0,0,0-.06.29.81.81,0,0,0,0,.15.83.83,0,0,0,0,.14l.07.13.09.12a.76.76,0,0,0,.54.22l.15,0,.14,0,.13-.07.12-.09.09-.12.07-.13a.82.82,0,0,0,0-.14.71.71,0,0,0,0-.15.77.77,0,0,0-.22-.54l-.12-.09Zm0,0"/>
  </g>
  <g>
    <path class="cls-2" d="M375,5a20,20,0,1,0,20,20A20,20,0,0,0,375,5Zm11.47,5.51a18.62,18.62,0,0,1,2.72,2.65,2.94,2.94,0,0,0-1.21,0,2.55,2.55,0,0,0-1.69,1.42.46.46,0,0,1-.88-.17,8.71,8.71,0,0,1,1.06-3.92Zm-24.2,1.1A18.54,18.54,0,0,1,367.78,8a21.91,21.91,0,0,1,4.92,4.61,1.17,1.17,0,0,1-.45,1.76c-1.82.83-4.23,2.12-5.38,3.55a1.08,1.08,0,0,1-1.1.38,2.88,2.88,0,0,0-3.48,1.31c-.89,1.56.35,3.08,1.45,4.42l.37.46a7,7,0,0,1-2.62-2.64c-1-1.85-1.7-5.12.79-10.21ZM356.52,25a18.37,18.37,0,0,1,2.86-9.87,10.26,10.26,0,0,0,.77,7.43,8.88,8.88,0,0,0,4.43,3.85,1.44,1.44,0,0,1,.83,1l.06.28a9.72,9.72,0,0,1,.09,3,5.31,5.31,0,0,0,2.25,5l1.51,1.05a15.79,15.79,0,0,0,.56,6A18.52,18.52,0,0,1,356.52,25ZM393,28.09a2.84,2.84,0,0,0-1-2,2.8,2.8,0,0,0-2.19-.59h-.07A2.21,2.21,0,0,1,388,25a2.25,2.25,0,0,1-.88-1.52,10.92,10.92,0,0,1-.09-1.91.76.76,0,0,0-1.52-.07,12.37,12.37,0,0,0,.1,2.17,3.76,3.76,0,0,0,1.47,2.53,3.71,3.71,0,0,0,2.8.72H390a1.26,1.26,0,0,1,1,.27,1.32,1.32,0,0,1,.49.95,8.49,8.49,0,0,0,.83,3.38,18.48,18.48,0,0,1-19.42,11.8l.91-.94a.76.76,0,0,0-1.09-1.05l-1.23,1.26c-1-2.44-.58-6.14-.57-6.18a.76.76,0,0,0-.32-.72l-1.88-1.31a3.8,3.8,0,0,1-1.61-3.55,11.6,11.6,0,0,0,0-3.11,23.72,23.72,0,0,1,3.53-.65,2.24,2.24,0,0,1,1.8.61,30.26,30.26,0,0,0,5.06,3.66,2.7,2.7,0,0,1,.69,4c-.67.82-1.5,1.77-2.45,2.81a.76.76,0,0,0,1.12,1c1-1.06,1.81-2,2.5-2.87a4.22,4.22,0,0,0-1.08-6.28,29.3,29.3,0,0,1-4.8-3.46,3.76,3.76,0,0,0-3-1,25.47,25.47,0,0,0-3.57.64,8.52,8.52,0,0,0-1.92-3.19c-1-1.24-1.65-2.1-1.3-2.7.22-.39.65-.88,1.79-.59a2.6,2.6,0,0,0,2.65-.89,14.41,14.41,0,0,1,4.83-3.12,2.69,2.69,0,0,0,1-4,22.5,22.5,0,0,0-4.41-4.34,18.47,18.47,0,0,1,15.73,2.26,10.39,10.39,0,0,0-1.34,4.86,2,2,0,0,0,1.77,1.9h.2a2,2,0,0,0,1.78-1.1,1,1,0,0,1,.69-.62c.34-.08,1.11-.06,2.55.94a7.61,7.61,0,0,1-1.06-.05,2.28,2.28,0,0,0-1.62.41,5.74,5.74,0,0,0-.86.76.76.76,0,1,0,1.11,1,4.23,4.23,0,0,1,.63-.56.77.77,0,0,1,.55-.13,9.11,9.11,0,0,0,2.06,0A18.47,18.47,0,0,1,393.05,29q-.06-.42-.09-.88Zm0,0"/>
    <path class="cls-2" d="M375.46,40a.72.72,0,0,0-.07-.13l-.09-.12-.12-.1-.13-.07-.14,0a.74.74,0,0,0-.3,0l-.14,0-.13.07-.12.1-.1.12a.78.78,0,0,0-.07.13.81.81,0,0,0,0,.14.76.76,0,0,0,0,.15.74.74,0,0,0,0,.15.8.8,0,0,0,0,.14l.07.13.1.12.12.09.13.07.14,0h.3l.14,0,.13-.07.12-.09.09-.12a.69.69,0,0,0,.07-.13.75.75,0,0,0,.06-.29.76.76,0,0,0,0-.15.75.75,0,0,0,0-.14Zm0,0"/>
    <path class="cls-2" d="M378.62,8.38c-.12-.11-1.31-1.09-5.1-1.41a.84.84,0,0,0-.85.44c-.28.54.07.95.59,1.56a6.84,6.84,0,0,1,1.77,3.1.76.76,0,0,0,.56.63l.2,0a.76.76,0,0,0,.6-.3l2.33-3a.76.76,0,0,0-.09-1Zm-2.55,2A9.12,9.12,0,0,0,375,8.68a10.06,10.06,0,0,1,2,.51Zm0,0"/>
    <path class="cls-2" d="M387.1,18.71l-.13-.07-.14,0a.76.76,0,0,0-.3,0l-.14,0-.13.07-.12.09-.09.12A.81.81,0,0,0,386,19a.73.73,0,0,0-.06.29.81.81,0,0,0,0,.15.83.83,0,0,0,0,.14l.07.13.09.12a.76.76,0,0,0,.54.22l.15,0,.14,0,.13-.07.12-.09.09-.12.07-.13a.82.82,0,0,0,0-.14.71.71,0,0,0,0-.15.77.77,0,0,0-.22-.54l-.12-.09Zm0,0"/>
  </g>
  <g>
    <path class="cls-1" d="M445.18,22.62a.78.78,0,0,0,0-.58.82.82,0,0,0-.17-.25l-9.16-9.16a.76.76,0,0,0-1.08,1.08l7.86,7.86H426.14a.76.76,0,0,0,0,1.53h16.49L434.77,31A.76.76,0,1,0,435.85,32L445,22.87a.79.79,0,0,0,.17-.25Zm0,0"/>
    <path class="cls-1" d="M431.49,26.14a.77.77,0,0,0-.76.76V38.13h-7.64v-27a.76.76,0,0,0-.53-.73L410.45,6.53h20.28V17.74a.76.76,0,0,0,1.53,0v-12a.77.77,0,0,0-.76-.76h-26l-.07,0-.12,0a.71.71,0,0,0-.2.08l-.06,0-.06.06,0,0a.7.7,0,0,0-.14.21l0,0a.79.79,0,0,0-.05.27V38.89a.72.72,0,0,0,.06.27l0,.08a.68.68,0,0,0,.1.15l.07.07.15.1.08,0,0,0L422.1,45a.81.81,0,0,0,.23,0,.79.79,0,0,0,.45-.15.77.77,0,0,0,.31-.62V39.65h8.4a.76.76,0,0,0,.76-.76v-12a.77.77,0,0,0-.76-.76Zm-9.93,17-15.27-4.86V6.81l15.27,4.86Zm0,0"/>
  </g>
  <g>
    <path class="cls-2" d="M495.18,22.62a.78.78,0,0,0,0-.58.82.82,0,0,0-.17-.25l-9.16-9.16a.76.76,0,0,0-1.08,1.08l7.86,7.86H476.14a.76.76,0,0,0,0,1.53h16.49L484.77,31A.76.76,0,1,0,485.85,32L495,22.87a.79.79,0,0,0,.17-.25Zm0,0"/>
    <path class="cls-2" d="M481.49,26.14a.77.77,0,0,0-.76.76V38.13h-7.64v-27a.76.76,0,0,0-.53-.73L460.45,6.53h20.28V17.74a.76.76,0,0,0,1.53,0v-12a.77.77,0,0,0-.76-.76h-26l-.07,0-.12,0a.71.71,0,0,0-.2.08l-.06,0-.06.06,0,0a.7.7,0,0,0-.14.21l0,0a.79.79,0,0,0-.05.27V38.89a.72.72,0,0,0,.06.27l0,.08a.68.68,0,0,0,.1.15l.07.07.15.1.08,0,0,0L472.1,45a.81.81,0,0,0,.23,0,.79.79,0,0,0,.45-.15.77.77,0,0,0,.31-.62V39.65h8.4a.76.76,0,0,0,.76-.76v-12a.77.77,0,0,0-.76-.76Zm-9.93,17-15.27-4.86V6.81l15.27,4.86Zm0,0"/>
  </g>
  <g>
    <path class="cls-1" d="M539.59,28.13a.69.69,0,0,0-.69.7v5.56a2.09,2.09,0,0,1-2.08,2.08H513.19a2.09,2.09,0,0,1-2.08-2.08V28.82a.69.69,0,1,0-1.39,0v5.56a3.48,3.48,0,0,0,3.47,3.47h23.63a3.48,3.48,0,0,0,3.47-3.47V28.82a.69.69,0,0,0-.7-.7Zm0,0"/>
    <path class="cls-1" d="M511.1,26V19.09A2.09,2.09,0,0,1,513.19,17h5.56a.69.69,0,0,0,.69-.69c0-2.74,3-4.86,5.56-4.86a6.07,6.07,0,0,1,4.77,2.48.69.69,0,1,0,1.14-.8,7.44,7.44,0,0,0-5.21-3V8.54a2.09,2.09,0,1,0-1.39,0V10.1c-2.86.32-5.8,2.53-6.21,5.52h-4.91a3.48,3.48,0,0,0-3.47,3.47v6.25h-1.52a2.08,2.08,0,1,0,0,1.39h2.21a.69.69,0,0,0,.7-.69ZM525,5.89a.69.69,0,1,1-.69.7.7.7,0,0,1,.69-.7ZM506.24,26.74a.69.69,0,1,1,.69-.69.7.7,0,0,1-.69.69Zm0,0"/>
    <path class="cls-1" d="M543.76,24a2.08,2.08,0,0,0-2,1.39h-1.52V19.09a3.48,3.48,0,0,0-3.47-3.47H521.53a.69.69,0,0,0,0,1.39h15.29a2.09,2.09,0,0,1,2.08,2.08V26a.69.69,0,0,0,.69.7h2.21a2.08,2.08,0,1,0,2-2.78Zm0,2.78a.69.69,0,1,1,.7-.69.7.7,0,0,1-.7.69Zm0,0"/>
    <path class="cls-1" d="M531.26,40.29H518.75a.7.7,0,1,0,0,1.39h12.51a.7.7,0,0,0,0-1.39Zm0,0"/>
    <path class="cls-1" d="M534.73,23.26a2.08,2.08,0,1,0-2.08,2.08,2.09,2.09,0,0,0,2.08-2.08Zm-2.78,0a.7.7,0,1,1,.7.7.7.7,0,0,1-.7-.7Zm0,0"/>
    <path class="cls-1" d="M519.44,23.26a2.08,2.08,0,1,0-2.08,2.08,2.09,2.09,0,0,0,2.08-2.08Zm-2.08.7a.69.69,0,1,1,.7-.7.7.7,0,0,1-.7.7Zm0,0"/>
    <path class="cls-1" d="M518.05,30.21V33a.69.69,0,0,0,.7.69h12.51a.69.69,0,0,0,.69-.69V30.21a.69.69,0,0,0-.69-.69H518.75a.69.69,0,0,0-.7.69Zm9.73.7h2.78V32.3h-2.78Zm-4.17,0h2.78V32.3h-2.78Zm-4.17,0h2.78V32.3h-2.78Zm0,0"/>
    <path class="cls-1" d="M529.87,44.11h-9.73a.69.69,0,1,0,0,1.39h9.73a.69.69,0,0,0,0-1.39Zm0,0"/>
  </g>
  <g>
    <path class="cls-2" d="M589.59,28.13a.69.69,0,0,0-.69.7v5.56a2.09,2.09,0,0,1-2.08,2.08H563.19a2.09,2.09,0,0,1-2.08-2.08V28.82a.69.69,0,1,0-1.39,0v5.56a3.48,3.48,0,0,0,3.47,3.47h23.63a3.48,3.48,0,0,0,3.47-3.47V28.82a.69.69,0,0,0-.7-.7Zm0,0"/>
    <path class="cls-2" d="M561.1,26V19.09A2.09,2.09,0,0,1,563.19,17h5.56a.69.69,0,0,0,.69-.69c0-2.74,3-4.86,5.56-4.86a6.07,6.07,0,0,1,4.77,2.48.69.69,0,1,0,1.14-.8,7.44,7.44,0,0,0-5.21-3V8.54a2.09,2.09,0,1,0-1.39,0V10.1c-2.86.32-5.8,2.53-6.21,5.52h-4.91a3.48,3.48,0,0,0-3.47,3.47v6.25h-1.52a2.08,2.08,0,1,0,0,1.39h2.21a.69.69,0,0,0,.7-.69ZM575,5.89a.69.69,0,1,1-.69.7.7.7,0,0,1,.69-.7ZM556.24,26.74a.69.69,0,1,1,.69-.69.7.7,0,0,1-.69.69Zm0,0"/>
    <path class="cls-2" d="M593.76,24a2.08,2.08,0,0,0-2,1.39h-1.52V19.09a3.48,3.48,0,0,0-3.47-3.47H571.53a.69.69,0,0,0,0,1.39h15.29a2.09,2.09,0,0,1,2.08,2.08V26a.69.69,0,0,0,.69.7h2.21a2.08,2.08,0,1,0,2-2.78Zm0,2.78a.69.69,0,1,1,.7-.69.7.7,0,0,1-.7.69Zm0,0"/>
    <path class="cls-2" d="M581.26,40.29H568.75a.7.7,0,1,0,0,1.39h12.51a.7.7,0,0,0,0-1.39Zm0,0"/>
    <path class="cls-2" d="M584.73,23.26a2.08,2.08,0,1,0-2.08,2.08,2.09,2.09,0,0,0,2.08-2.08Zm-2.78,0a.7.7,0,1,1,.7.7.7.7,0,0,1-.7-.7Zm0,0"/>
    <path class="cls-2" d="M569.44,23.26a2.08,2.08,0,1,0-2.08,2.08,2.09,2.09,0,0,0,2.08-2.08Zm-2.08.7a.69.69,0,1,1,.7-.7.7.7,0,0,1-.7.7Zm0,0"/>
    <path class="cls-2" d="M568.05,30.21V33a.69.69,0,0,0,.7.69h12.51a.69.69,0,0,0,.69-.69V30.21a.69.69,0,0,0-.69-.69H568.75a.69.69,0,0,0-.7.69Zm9.73.7h2.78V32.3h-2.78Zm-4.17,0h2.78V32.3h-2.78Zm-4.17,0h2.78V32.3h-2.78Zm0,0"/>
    <path class="cls-2" d="M579.87,44.11h-9.73a.69.69,0,1,0,0,1.39h9.73a.69.69,0,0,0,0-1.39Zm0,0"/>
  </g>
  <g>
    <path class="cls-1" d="M611.58,17.31a3.68,3.68,0,1,0-3.68-3.69,3.69,3.69,0,0,0,3.68,3.69Zm0-5.66a2,2,0,1,1-2,2,2,2,0,0,1,2-2Zm0,0"/>
    <path class="cls-1" d="M611.58,28.68A3.68,3.68,0,1,0,607.9,25a3.69,3.69,0,0,0,3.68,3.68Zm0-5.65a2,2,0,1,1-2,2,2,2,0,0,1,2-2Zm0,0"/>
    <path class="cls-1" d="M611.58,40.06a3.68,3.68,0,1,0-3.68-3.68,3.69,3.69,0,0,0,3.68,3.68Zm0-5.66a2,2,0,1,1-2,2,2,2,0,0,1,2-2Zm0,0"/>
    <path class="cls-1" d="M620.18,14.48h21.06a.86.86,0,0,0,0-1.72H620.18a.86.86,0,0,0,0,1.72Zm0,0"/>
    <path class="cls-1" d="M620.18,25.86h21.06a.86.86,0,1,0,0-1.72H620.18a.86.86,0,1,0,0,1.72Zm0,0"/>
    <path class="cls-1" d="M620.18,37.23h21.06a.86.86,0,0,0,0-1.72H620.18a.86.86,0,0,0,0,1.72Zm0,0"/>
  </g>
  <g>
    <path class="cls-2" d="M661.58,17.31a3.68,3.68,0,1,0-3.68-3.69,3.69,3.69,0,0,0,3.68,3.69Zm0-5.66a2,2,0,1,1-2,2,2,2,0,0,1,2-2Zm0,0"/>
    <path class="cls-2" d="M661.58,28.68A3.68,3.68,0,1,0,657.9,25a3.69,3.69,0,0,0,3.68,3.68Zm0-5.65a2,2,0,1,1-2,2,2,2,0,0,1,2-2Zm0,0"/>
    <path class="cls-2" d="M661.58,40.06a3.68,3.68,0,1,0-3.68-3.68,3.69,3.69,0,0,0,3.68,3.68Zm0-5.66a2,2,0,1,1-2,2,2,2,0,0,1,2-2Zm0,0"/>
    <path class="cls-2" d="M670.18,14.48h21.06a.86.86,0,0,0,0-1.72H670.18a.86.86,0,0,0,0,1.72Zm0,0"/>
    <path class="cls-2" d="M670.18,25.86h21.06a.86.86,0,1,0,0-1.72H670.18a.86.86,0,1,0,0,1.72Zm0,0"/>
    <path class="cls-2" d="M670.18,37.23h21.06a.86.86,0,0,0,0-1.72H670.18a.86.86,0,0,0,0,1.72Zm0,0"/>
  </g>
  <g>
    <path class="cls-1" d="M744.06,44.36h-1.8V18.24A2.21,2.21,0,0,0,740.06,16h-4a2.21,2.21,0,0,0-2.21,2.21V44.36h-4.57V30.07a2.21,2.21,0,0,0-2.21-2.21h-4a2.21,2.21,0,0,0-2.21,2.21V44.36h-4.57V37a2.21,2.21,0,0,0-2.21-2.21h-4A2.21,2.21,0,0,0,707.83,37v7.4h-1.9a.82.82,0,0,0,0,1.64h38.13a.82.82,0,1,0,0-1.64Zm-34.59,0V37a.57.57,0,0,1,.56-.56h4a.57.57,0,0,1,.56.56v7.4Zm13,0V30.07a.57.57,0,0,1,.56-.56h4a.57.57,0,0,1,.56.56V44.36Zm13,0V18.24a.57.57,0,0,1,.56-.56h4a.57.57,0,0,1,.56.56V44.36Z"/>
    <path class="cls-1" d="M713,26.84a.82.82,0,0,0,.58-.24l14.17-14.17,3.06,3.06a.82.82,0,0,0,1.16,0l8.69-8.69V9.57a.82.82,0,0,0,1.64,0V4.9s0,0,0,0A.82.82,0,0,0,741.4,4h-5a.82.82,0,0,0,0,1.64h3.06l-8.11,8.11-3.06-3.06a.82.82,0,0,0-1.16,0L712.39,25.44a.82.82,0,0,0,.58,1.4Z"/>
    <circle class="cls-1" cx="710.2" cy="28.88" r="0.82"/>
  </g>
  <g>
    <path d="M794.06,44.36h-1.8V18.24A2.21,2.21,0,0,0,790.06,16h-4a2.21,2.21,0,0,0-2.21,2.21V44.36h-4.57V30.07a2.21,2.21,0,0,0-2.21-2.21h-4a2.21,2.21,0,0,0-2.21,2.21V44.36h-4.57V37a2.21,2.21,0,0,0-2.21-2.21h-4A2.21,2.21,0,0,0,757.83,37v7.4h-1.9a.82.82,0,0,0,0,1.64h38.13a.82.82,0,1,0,0-1.64Zm-34.59,0V37a.57.57,0,0,1,.56-.56h4a.57.57,0,0,1,.56.56v7.4Zm13,0V30.07a.57.57,0,0,1,.56-.56h4a.57.57,0,0,1,.56.56V44.36Zm13,0V18.24a.57.57,0,0,1,.56-.56h4a.57.57,0,0,1,.56.56V44.36Z"/>
    <path d="M763,26.84a.82.82,0,0,0,.58-.24l14.17-14.17,3.06,3.06a.82.82,0,0,0,1.16,0l8.69-8.69V9.57a.82.82,0,0,0,1.64,0V4.9s0,0,0,0A.82.82,0,0,0,791.4,4h-5a.82.82,0,0,0,0,1.64h3.06l-8.11,8.11-3.06-3.06a.82.82,0,0,0-1.16,0L762.39,25.44a.82.82,0,0,0,.58,1.4Z"/>
    <circle cx="760.2" cy="28.88" r="0.82"/>
  </g>
</svg>
