<svg id="圖層_1" data-name="圖層 1" xmlns="http://www.w3.org/2000/svg" width="70" height="70" viewBox="0 0 70 70"><defs><style>.cls-1{fill:#555;}</style></defs><title>工作區域 2 複本</title><path class="cls-1" d="M34.36,23.26H20.59A10.76,10.76,0,0,0,9.83,34H24v0A10.75,10.75,0,0,0,34.36,23.26Z"/><path class="cls-1" d="M34.36,36.51H20.59A10.76,10.76,0,0,0,9.83,47.27H24v0A10.75,10.75,0,0,0,34.36,36.51Z"/><path class="cls-1" d="M49.41,22.73V36.51A10.76,10.76,0,0,0,60.17,47.27V33.13h0A10.75,10.75,0,0,0,49.41,22.73Z"/><path class="cls-1" d="M47.24,22.73V36.51A10.76,10.76,0,0,1,36.48,47.27V33.13h0A10.75,10.75,0,0,1,47.24,22.73Z"/></svg>