<svg xmlns="http://www.w3.org/2000/svg" viewBox="0 0 80 56.173">
  <defs>
    <style>
      .cls-1 {
        fill: #333;
      }
    </style>
  </defs>
  <path id="Path_12626" data-name="Path 12626" class="cls-1" d="M615.412,60.222H581.431v19.17h4.954V76.717a.994.994,0,0,1,.991-.991h64.05a.994.994,0,0,1,.991.991v2.675h4.954V60.222H615.412Zm43.988-.941v21.1a.994.994,0,0,1-.991.991h-6.935a.994.994,0,0,1-.991-.991V77.708H588.317v2.675a.994.994,0,0,1-.991.991h-6.935a.994.994,0,0,1-.991-.991V35.7a.968.968,0,0,1,.347-.743,18.373,18.373,0,0,1,3.022-2.229,30.435,30.435,0,0,1,3.814-1.932c6.984-3.022,16.892-4.954,27.344-5.449a.628.628,0,0,1,.3-.05h.149a3.509,3.509,0,0,0,.693-.05h.694c1.189-.05,2.378-.05,3.567-.05h1.536c1.189,0,2.378.05,3.567.1a.371.371,0,0,1,.248.05q2.972.149,5.8.446c1.981.2,3.913.446,5.845.743C646.125,28.073,654.5,31,658.9,35.008a.978.978,0,0,1,.3.693h0V59.281ZM647.561,47.194c.149-.1.347-.2.5-.3a27.177,27.177,0,0,0-4.161-2.08,10.367,10.367,0,0,0-1.139-.4,24.219,24.219,0,0,0-7.381-1.139h0a24.206,24.206,0,0,0-10.353,2.328c-.594.3-1.189.594-1.783.941-.149.1-.347.2-.5.3a27.183,27.183,0,0,0,4.161,2.08,10.371,10.371,0,0,0,1.139.4,24.219,24.219,0,0,0,7.381,1.139h0a24.206,24.206,0,0,0,10.353-2.328A15.06,15.06,0,0,0,647.561,47.194Zm-32.05,0c.149-.1.347-.2.5-.3a27.186,27.186,0,0,0-4.161-2.08,10.374,10.374,0,0,0-1.139-.4,24.219,24.219,0,0,0-7.381-1.139h0a24.205,24.205,0,0,0-10.353,2.328c-.594.3-1.189.594-1.783.941-.149.1-.347.2-.5.3a27.186,27.186,0,0,0,4.161,2.08,10.379,10.379,0,0,0,1.139.4,24.22,24.22,0,0,0,7.381,1.139h0a24.206,24.206,0,0,0,10.353-2.328A15.055,15.055,0,0,0,615.512,47.194Zm-29.523,11.1h66.923a1.194,1.194,0,0,0,.594-.545,3.9,3.9,0,0,0,.5-1.981h0a3.9,3.9,0,0,0-.5-1.981c-.2-.347-.446-.545-.644-.545H586.038c-.2,0-.446.2-.644.545a3.9,3.9,0,0,0-.5,1.981h0a3.9,3.9,0,0,0,.5,1.981A1.03,1.03,0,0,0,585.988,58.29Zm.049-6.985H595.9l-.446-.149c-.4-.149-.842-.3-1.189-.446a27.844,27.844,0,0,1-5.746-3.071.956.956,0,0,1-.248-1.337c.05-.1.149-.149.248-.248h0l.049-.05c.594-.4,1.189-.793,1.783-1.139l1.932-1.04a25.764,25.764,0,0,1,11.2-2.526h0a26.591,26.591,0,0,1,7.975,1.238c.4.149.842.3,1.189.446a27.842,27.842,0,0,1,5.746,3.071.956.956,0,0,1,.248,1.337c-.05.1-.149.149-.248.248h0l-.049.05c-.594.4-1.189.793-1.783,1.139l-1.932,1.04a29.641,29.641,0,0,1-3.666,1.437h16.991l-.446-.149c-.4-.149-.842-.3-1.189-.446a27.844,27.844,0,0,1-5.746-3.071.956.956,0,0,1-.248-1.337c.049-.1.149-.149.248-.248h0l.049-.05c.594-.4,1.189-.793,1.783-1.139l1.932-1.04a25.764,25.764,0,0,1,11.2-2.526h0a26.591,26.591,0,0,1,7.975,1.238c.4.149.842.3,1.189.446a27.843,27.843,0,0,1,5.746,3.071.956.956,0,0,1,.248,1.337c-.05.1-.149.149-.248.248h0l-.05.05c-.594.4-1.189.793-1.783,1.139l-1.932,1.04A29.637,29.637,0,0,1,643,51.305h9.858a2.813,2.813,0,0,1,2.328,1.486,6.135,6.135,0,0,1,.743,2.972h0a6.556,6.556,0,0,1-.5,2.526h2.031V36.1c-4.211-3.616-12.037-6.241-21.251-7.728-1.833-.3-3.765-.545-5.7-.743s-3.913-.347-5.895-.446h-.049a.628.628,0,0,1-.3-.05c-1.09-.05-2.18-.05-3.22-.1h-1.536c-1.139,0-2.328,0-3.517.05h-1.288a.447.447,0,0,1-.248.05c-10.3.5-20.111,2.328-26.9,5.3a29.769,29.769,0,0,0-3.567,1.833A19.081,19.081,0,0,0,581.58,36V58.29h2.031a5.753,5.753,0,0,1-.5-2.526h0a6.134,6.134,0,0,1,.743-2.972,2.366,2.366,0,0,1,2.18-1.486Z" transform="translate(-579.4 -25.2)"/>
</svg>
