<svg xmlns="http://www.w3.org/2000/svg" viewBox="0 0 270 213.221">
  <defs>
    <style>
      .cls-1, .cls-2, .cls-3 {
        fill: #aaa;
      }

      .cls-1 {
        opacity: 0.09;
      }

      .cls-2 {
        opacity: 0.3;
      }

      .cls-3 {
        opacity: 0.1;
      }

      .cls-4, .cls-5 {
        fill: #333;
      }

      .cls-4 {
        stroke: #333;
        stroke-width: 2px;
      }

      .cls-6 {
        fill: none;
        stroke: #999;
        stroke-width: 5px;
        opacity: 0.25;
      }
    </style>
  </defs>
  <g id="_25y" data-name="25y" transform="translate(-137 -864.013)">
    <g id="Group_837" data-name="Group 837" transform="translate(137 864.013)">
      <g id="Group_415" data-name="Group 415" transform="translate(0 0)">
        <path id="Path_6731" data-name="Path 6731" class="cls-1" d="M80.225,152.039a18.447,18.447,0,0,0,18.392-18.481A19,19,0,0,0,79.692,114.9,18.433,18.433,0,0,0,61.3,133.025,18.959,18.959,0,0,0,80.225,152.039Z" transform="translate(133.153 -6.618)"/>
        <path id="Path_6736" data-name="Path 6736" class="cls-1" d="M77.624,146.935a15.912,15.912,0,0,0,15.864-15.941A16.391,16.391,0,0,0,77.164,114.9,15.9,15.9,0,0,0,61.3,130.534,16.354,16.354,0,0,0,77.624,146.935Z" transform="translate(-19.529 -91.486)"/>
        <path id="Path_3409" data-name="Path 3409" class="cls-2" d="M146.859,55A17.691,17.691,0,0,0,129,72.859a18.885,18.885,0,0,0,18.658,18.925,17.468,17.468,0,0,0,17.681-17.77C165.339,63.885,156.81,55.089,146.859,55Z" transform="translate(25.833 -4.906)"/>
        <path id="Path_6734" data-name="Path 6734" class="cls-3" d="M142.263,55A13.139,13.139,0,0,0,129,68.263a14.025,14.025,0,0,0,13.857,14.055,12.973,12.973,0,0,0,13.131-13.2C155.987,61.6,149.653,55.066,142.263,55Z" transform="translate(114.013 -54.999)"/>
        <path id="Path_6735" data-name="Path 6735" class="cls-3" d="M169.993,55C147.152,54.8,129.2,72.948,129,95.993c-.2,23.657,19.375,43.44,42.828,43.44,22.842,0,40.585-17.743,40.585-40.789C212.414,75.4,192.835,55.2,169.993,55Z" transform="translate(-128.999 57.192)"/>
      </g>
      <path id="Path_12665" data-name="Path 12665" class="cls-4" d="M-4.074-15.375q-.32,1.281-1.081,3.8t-1.461,4.7q-.7,2.182-1.441,4.384T-8.879,0H-38.028a2.65,2.65,0,0,1-.721-1.441q.721-.8,4.164-4.524t4.625-5.1q1.181-1.381,3.523-4.444t4.344-6.186q4.645-7.367,4.645-14.254a9.024,9.024,0,0,0-2.6-6.526,8.093,8.093,0,0,0-5.966-2.683,9.09,9.09,0,0,0-3,.5,8.455,8.455,0,0,0-2.5,1.341A20.859,20.859,0,0,0-33.3-41.761a14.772,14.772,0,0,0-1.3,1.481q-.581.761-.621.8a1.817,1.817,0,0,1-1.041-.561,1.744,1.744,0,0,1-.641-1.361,13.829,13.829,0,0,1,1.862-2.883A24.717,24.717,0,0,1-31.8-47.526a16.6,16.6,0,0,1,4.865-2.783,16.8,16.8,0,0,1,6.046-1.1,14.306,14.306,0,0,1,9.97,3.583q3.964,3.583,3.964,9.87,0,6.807-6.086,13.934A180.6,180.6,0,0,1-28.1-8.168h13.773a6.359,6.359,0,0,0,1.361-.14,9.175,9.175,0,0,0,1.141-.32,3.783,3.783,0,0,0,1-.561l.841-.641a3.73,3.73,0,0,0,.741-.841q.4-.581.621-.861a6.118,6.118,0,0,0,.561-.961q.34-.681.44-.941t.42-.981q.32-.721.4-.881.24-.561,1.121-.561A2.49,2.49,0,0,1-4.074-15.375Zm25.846-18.5a15.307,15.307,0,0,1,7.587,2.082,17.3,17.3,0,0,1,6.066,5.686,13.776,13.776,0,0,1,2.362,7.688,16.656,16.656,0,0,1-1.842,7.688,18.61,18.61,0,0,1-4.8,6.026A23.121,23.121,0,0,1,24.414-.9,21.933,21.933,0,0,1,16.807.48,21.515,21.515,0,0,1,10.32-.44,13.622,13.622,0,0,1,6-2.482,4.16,4.16,0,0,1,5.316-4.1a8.084,8.084,0,0,1-.28-1.822A4.413,4.413,0,0,1,6.156-8.849,3.783,3.783,0,0,1,9.2-10.17a4.025,4.025,0,0,1,.7.06,2.312,2.312,0,0,1,.681.24l.6.32a3.47,3.47,0,0,1,.621.46q.36.32.561.48a4.806,4.806,0,0,1,.561.581,5.678,5.678,0,0,0,.48.521,5.229,5.229,0,0,1,.5.581q.38.48.42.521,3,3.523,5.686,3.523a6.268,6.268,0,0,0,5.605-2.963q1.922-2.963,1.922-8.408A11.321,11.321,0,0,0,25.7-20.54a12.9,12.9,0,0,0-4.344-4.284,9.731,9.731,0,0,0-4.865-1.441,20.168,20.168,0,0,0-7.367,1.121q-.32,0-.561-.581a2.729,2.729,0,0,1-.24-1.021q.04-.12,1.021-5.245t2.082-11.091q1.1-5.966,1.381-7.768H27.057a35.687,35.687,0,0,0,7.367-.881.858.858,0,0,1,.2.06q.16.06.24.1t.22.12a.535.535,0,0,1,.2.18,1.457,1.457,0,0,1,.12.28,1.2,1.2,0,0,1,.06.38A13.036,13.036,0,0,1,34.3-46.926q-1.161,2.8-1.8,4-4.965.48-12.012.641-2.563.08-5.365.08l-1.842,9.369A36.187,36.187,0,0,1,21.772-33.873Z" transform="translate(135.482 108.941)"/>
      <path id="Path_12666" data-name="Path 12666" class="cls-5" d="M-44.646-20.337a41.575,41.575,0,0,0,4.785-.239,1.8,1.8,0,0,1,.036.8q-.06.586-.227.586-.311,0-.778.048a4.194,4.194,0,0,0-1.017.251q-.55.2-.55.514a.425.425,0,0,0,.048.191l5.072,12.92q2.44-6.364,4.259-10.862a3.967,3.967,0,0,0,.287-1.531,1.242,1.242,0,0,0-.766-1.125,4.284,4.284,0,0,0-2.01-.407q-.167,0-.167-.6a1.28,1.28,0,0,1,.167-.79,33.19,33.19,0,0,0,4.307.239q1.627,0,4.02-.239a1.28,1.28,0,0,1,.072.8q-.072.586-.215.586a4.943,4.943,0,0,0-1.639.383,2.256,2.256,0,0,0-1.376,1.244q-5.12,12.2-7.178,17.274-.239.574-1.029,2.68t-1.388,3.4A16.632,16.632,0,0,1-41.32,8.23q-1.818,2.68-4.163,2.68a1.829,1.829,0,0,1-2.082-2.058,2.181,2.181,0,0,1,.574-1.388A7.719,7.719,0,0,0-44,7a6.846,6.846,0,0,0,2.417-2.261,14.924,14.924,0,0,0,1.328-2.488A21.624,21.624,0,0,0-39.286-.1Q-44.071-12.3-46.8-18.231q-.455-.957-2.632-.957-.072,0-.072-.658a1.787,1.787,0,0,1,.072-.73A45.749,45.749,0,0,0-44.646-20.337Zm22.514,6.7h7.8q1.029,0,1.1-1.1a3.676,3.676,0,0,0-.191-1.2,7.351,7.351,0,0,0-.646-1.483,3.7,3.7,0,0,0-1.244-1.292,3.317,3.317,0,0,0-1.842-.526,3.85,3.85,0,0,0-2.058.574,4.594,4.594,0,0,0-1.471,1.4,10.416,10.416,0,0,0-.885,1.651,8.851,8.851,0,0,0-.479,1.4Q-22.179-13.638-22.131-13.638Zm-.239,1.771q-.1,4.378,2.165,6.783a7.416,7.416,0,0,0,5.635,2.4,5.965,5.965,0,0,0,3.122-.837,8.716,8.716,0,0,0,2.141-1.7q.024,0,.12.084a.815.815,0,0,1,.179.251.743.743,0,0,1,.084.335,1.716,1.716,0,0,1-.287.861,8.128,8.128,0,0,1-.957,1.244A11.889,11.889,0,0,1-11.6-1.148a7.377,7.377,0,0,1-2.07,1.1A7.462,7.462,0,0,1-16.2.383a9.069,9.069,0,0,1-6.879-2.835A9.93,9.93,0,0,1-25.768-9.57a11.657,11.657,0,0,1,.885-4.474,12.118,12.118,0,0,1,2.249-3.637A11.484,11.484,0,0,1-19.6-20.062a6.875,6.875,0,0,1,3.254-.9,8.2,8.2,0,0,1,2.943.5,6.174,6.174,0,0,1,2.082,1.232,6.616,6.616,0,0,1,1.268,1.663,7.482,7.482,0,0,1,.694,1.7,5.852,5.852,0,0,1,.191,1.412,4.25,4.25,0,0,1-.251,1.663.945.945,0,0,1-.9.586q-.981.072-6.209.2T-22.371-11.867ZM1.842-2.2A5.914,5.914,0,0,0,4.51-2.979q1.5-.778,1.5-1.184v-6.508Q2.3-9.57,1.555-9.283A5.059,5.059,0,0,0-.586-7.812a3.445,3.445,0,0,0-.778,2.261A3.337,3.337,0,0,0-.431-3.206,2.985,2.985,0,0,0,1.842-2.2ZM4.426-20.863a4.62,4.62,0,0,1,3.649,1.914,7.09,7.09,0,0,1,1.567,4.642V-4.45q0,2.249,1.483,2.249a2.4,2.4,0,0,0,.419-.036,1.658,1.658,0,0,0,.347-.1q.144-.06.3-.144a2.333,2.333,0,0,0,.239-.144q.084-.06.167-.132t.108-.072q.191,0,.191.383a1.76,1.76,0,0,1-.239.909,9.572,9.572,0,0,1-1.735,1.16A4.241,4.241,0,0,1,9.068.287,2.422,2.422,0,0,1,7.226-.682,4.667,4.667,0,0,1,6.149-2.823a16.614,16.614,0,0,1-2.74,1.95A6.865,6.865,0,0,1,.263.383,5.455,5.455,0,0,1-3.72-1.208,5.277,5.277,0,0,1-5.335-5.12a4.1,4.1,0,0,1,.754-2.428,3.681,3.681,0,0,1,1.639-1.4q.79-.287,2.871-1t3.481-1.22q1.4-.5,2.022-.79a.837.837,0,0,0,.467-.359,2.149,2.149,0,0,0,.108-.837v-1.292A4.811,4.811,0,0,0,4.8-17.6,3.668,3.668,0,0,0,1.89-19.045a2.149,2.149,0,0,0-1.782.73,4.947,4.947,0,0,0-.849,2.237q-.407,2.3-2.249,2.3A1.392,1.392,0,0,1-4.163-14.4a2.3,2.3,0,0,1-.455-1.388,2.49,2.49,0,0,1,.108-.586,1.868,1.868,0,0,1,.227-.562A17.556,17.556,0,0,1-.347-19.6,10.361,10.361,0,0,1,4.426-20.863Zm23.615-.048A3.926,3.926,0,0,1,29.8-20.5a2.633,2.633,0,0,1,1.16.981,4.073,4.073,0,0,1,.191,1.292,2.77,2.77,0,0,1-.55,1.83,1.473,1.473,0,0,1-1.029.658,1.341,1.341,0,0,1-.586-.132,4.933,4.933,0,0,1-.694-.431q-.419-.3-.49-.347a3.154,3.154,0,0,0-1.771-.574,3.357,3.357,0,0,0-2.608,1.639A4.977,4.977,0,0,0,22.2-12.92v7.369a15.564,15.564,0,0,0,.239,3.541q.1.335,1.687.55a19.609,19.609,0,0,0,2.428.215,1.265,1.265,0,0,1,.156.694,1.036,1.036,0,0,1-.156.694Q21.653-.1,20.624-.1q-.455,0-5.359.239a1.036,1.036,0,0,1-.156-.694,1.265,1.265,0,0,1,.156-.694,9.947,9.947,0,0,0,1.806-.215q1.113-.215,1.208-.55a18.7,18.7,0,0,0,.239-3.541v-8.9a7.994,7.994,0,0,0-.239-2.488q-.144-.359-.909-.574a6.6,6.6,0,0,0-1.28-.251q-.514-.036-.921-.036a1.033,1.033,0,0,1-.108-.574,1.286,1.286,0,0,1,.108-.67,20.4,20.4,0,0,0,6.843-2.01q.167,0,.347.287a.967.967,0,0,1,.179.479q-.048.287-.191,2.165T22.2-15.887a.155.155,0,0,0,.048.132.093.093,0,0,0,.084.024.109.109,0,0,0,.06-.06,12.037,12.037,0,0,1,2.488-3.445A4.7,4.7,0,0,1,28.041-20.911Zm13.135,0a15.934,15.934,0,0,1,2.656.275q1.579.275,2.225.347a28.79,28.79,0,0,1,.574,5.264q0,.239-.479.239a1.237,1.237,0,0,1-.813-.239,8.326,8.326,0,0,0-1.531-3,3.15,3.15,0,0,0-2.488-1.4,3.506,3.506,0,0,0-2.524.837,2.881,2.881,0,0,0-.873,2.177A3.355,3.355,0,0,0,38.1-15.3a4.043,4.043,0,0,0,.395.849,3.293,3.293,0,0,0,.73.742q.514.407.8.6t1.029.61q.742.419,1.029.586.215.12.957.55t1.089.658q.347.227,1,.67a5.469,5.469,0,0,1,.993.813q.335.371.73.885a3.324,3.324,0,0,1,.562,1.077,4.127,4.127,0,0,1,.167,1.184A5.964,5.964,0,0,1,45.4-1.352,7.7,7.7,0,0,1,40.219.526a11.972,11.972,0,0,1-1.83-.132Q37.54.263,36.4,0T34.621-.383a12.856,12.856,0,0,1-.55-2.381,17.335,17.335,0,0,1-.263-2.6,1.4,1.4,0,0,1,.861-.287.783.783,0,0,1,.431.1,7.013,7.013,0,0,0,1.938,3.122A4.534,4.534,0,0,0,40.267-1a3.449,3.449,0,0,0,2.476-.921,3.316,3.316,0,0,0,.969-2.524,3.659,3.659,0,0,0-.3-1.507A3.477,3.477,0,0,0,42.42-7.2a12.252,12.252,0,0,0-1.244-.921q-.55-.347-1.675-.933t-1.627-.9a9.324,9.324,0,0,1-2.656-2.165,4.537,4.537,0,0,1-.981-2.955,5.113,5.113,0,0,1,2.082-4.2A7.623,7.623,0,0,1,41.176-20.911Z" transform="translate(134.931 144.141)"/>
    </g>
    <path id="Path_6768" data-name="Path 6768" class="cls-6" d="M11982.875,6627.893h-119.811V6432.745h187.661v169.667" transform="translate(-11681.504 -5553.159)"/>
  </g>
</svg>
